<svg viewBox="0 0 240 480" xmlns="http://www.w3.org/2000/svg" aria-hidden="true"><defs><linearGradient id="g" x1="0" y1="0" x2="0.2" y2="1"><stop offset="0" stop-color="#fff4d5"></stop><stop offset="0.45" stop-color="#ffe692"></stop><stop offset="1" stop-color="#c88c18"></stop></linearGradient></defs><path d="M210 470 L200.7 459 L191.8 448 L183.3 436.9 L175.2 425.9 L167.5 414.8 L160.2 403.8 L153.3 392.7 L146.8 381.6 L140.7 370.5 L135 359.4 L129.7 348.2 L124.8 337.1 L120.3 325.9 L116.2 314.8 L112.5 303.6 L109.2 292.4 L106.3 281.2 L103.8 270 L101.7 258.7 L100 247.5 L98.7 236.2 L97.8 225 L97.3 213.7 L97.2 202.4 L97.5 191.1 L98.2 179.8 L99.3 168.4 L100.8 157.1 L102.7 145.7 L105 134.4 L107.7 123 L110.8 111.6 L114.3 100.2 L118.2 88.8 L122.5 77.3 L127.2 65.9 L132.3 54.4 L137.8 43 L143.7 31.5 L150 20" fill="none" stroke="url(#g)" stroke-width="2.6" stroke-linecap="round"></path><g fill="url(#g)" stroke="#c88c18" stroke-width="0.5"><path d="M175.2 425.9 Q152.9 410.3 127.9 421.2 Q150.2 436.8 175.2 425.9 Z"></path><path d="M175.2 425.9 Q193.6 405.8 186 379.6 Q167.6 399.7 175.2 425.9 Z"></path><path d="M160.2 403.8 Q139.3 387.5 114.5 396.8 Q135.4 413.1 160.2 403.8 Z"></path><path d="M160.2 403.8 Q179 385.1 173 359.3 Q154.1 378 160.2 403.8 Z"></path><path d="M146.8 381.6 Q127.3 364.7 102.7 372.5 Q122.2 389.4 146.8 381.6 Z"></path><path d="M146.8 381.6 Q166.1 364.5 161.5 339.1 Q142.3 356.2 146.8 381.6 Z"></path><path d="M135 359.4 Q117 341.9 92.7 348.1 Q110.7 365.5 135 359.4 Z"></path><path d="M135 359.4 Q154.7 343.8 151.7 318.9 Q132 334.5 135 359.4 Z"></path><path d="M124.8 337.1 Q108.4 319.1 84.5 323.7 Q100.9 341.7 124.8 337.1 Z"></path><path d="M124.8 337.1 Q144.8 323.2 143.3 298.9 Q123.4 312.8 124.8 337.1 Z"></path><path d="M116.2 314.8 Q101.4 296.3 78 299.3 Q92.7 317.7 116.2 314.8 Z"></path><path d="M116.2 314.8 Q136.4 302.5 136.5 278.9 Q116.3 291.1 116.2 314.8 Z"></path><path d="M109.2 292.4 Q96.1 273.6 73.2 275 Q86.3 293.8 109.2 292.4 Z"></path><path d="M109.2 292.4 Q129.5 281.8 131.1 258.9 Q110.8 269.5 109.2 292.4 Z"></path><path d="M103.8 270 Q92.4 250.9 70.1 250.8 Q81.6 269.8 103.8 270 Z"></path><path d="M103.8 270 Q124.1 261.1 127.2 239.1 Q106.8 248 103.8 270 Z"></path><path d="M100 247.5 Q90.2 228.4 68.8 226.7 Q78.6 245.8 100 247.5 Z"></path><path d="M100 247.5 Q120.2 240.3 124.7 219.2 Q104.4 226.5 100 247.5 Z"></path><path d="M97.8 225 Q89.7 205.9 69.1 202.8 Q77.3 221.9 97.8 225 Z"></path><path d="M97.8 225 Q117.8 219.4 123.5 199.4 Q103.5 205 97.8 225 Z"></path><path d="M97.2 202.4 Q90.7 183.4 71.1 179.1 Q77.6 198 97.2 202.4 Z"></path><path d="M97.2 202.4 Q116.9 198.4 123.7 179.5 Q104 183.5 97.2 202.4 Z"></path><path d="M98.2 179.8 Q93.2 161.1 74.7 155.6 Q79.7 174.3 98.2 179.8 Z"></path><path d="M98.2 179.8 Q117.4 177.2 125.2 159.6 Q106.1 162.1 98.2 179.8 Z"></path><path d="M100.8 157.1 Q97.3 138.8 79.8 132.3 Q83.4 150.6 100.8 157.1 Z"></path><path d="M100.8 157.1 Q119.4 156 128.1 139.5 Q109.5 140.7 100.8 157.1 Z"></path><path d="M105 134.4 Q102.8 116.6 86.5 109.2 Q88.7 127 105 134.4 Z"></path><path d="M105 134.4 Q122.9 134.5 132.4 119.3 Q114.4 119.2 105 134.4 Z"></path><path d="M110.8 111.6 Q109.8 94.4 94.7 86.3 Q95.6 103.5 110.8 111.6 Z"></path><path d="M110.8 111.6 Q127.9 112.8 138 98.8 Q120.8 97.6 110.8 111.6 Z"></path><path d="M118.2 88.8 Q118.3 72.3 104.3 63.6 Q104.2 80.1 118.2 88.8 Z"></path><path d="M118.2 88.8 Q134.5 91 144.9 78.2 Q128.6 76 118.2 88.8 Z"></path><path d="M127.2 65.9 Q128.2 50.2 115.3 41.1 Q114.3 56.8 127.2 65.9 Z"></path><path d="M127.2 65.9 Q142.7 68.9 153.3 57.3 Q137.9 54.3 127.2 65.9 Z"></path><path d="M137.8 43 Q139.6 28 127.8 18.7 Q126 33.6 137.8 43 Z"></path><path d="M137.8 43 Q152.4 46.7 163.2 36.2 Q148.6 32.5 137.8 43 Z"></path></g></svg>