<svg viewBox="0 0 130 130" fill="none" xmlns="http://www.w3.org/2000/svg" aria-hidden="true">
  <g stroke="#ffe692" stroke-width="1.1" fill="none" stroke-linecap="round" opacity="0.8">
    
    <path d="M14 14 H78"></path>
    <path d="M14 14 V78"></path>
    
    <path d="M78 14 C96 14 110 22 110 40 C110 30 102 24 90 24"></path>
    <path d="M14 78 C14 96 22 110 40 110 C30 110 24 102 24 90"></path>
    
    <path d="M30 30 C44 30 52 38 52 52 C44 50 38 44 36 36"></path>
  </g>
  <g fill="#ffe692" opacity="0.85">
    <path d="M14 14 m0 0 q6 4 4 10 q-6 -2 -4 -10 z"></path>
    <circle cx="52" cy="52" r="2"></circle>
    <path d="M90 24 q5 -2 9 2 q-4 4 -9 -2 z"></path>
    <path d="M24 90 q-2 5 2 9 q4 -4 -2 -9 z"></path>
  </g>
</svg>