<svg viewBox="0 0 200 480" xmlns="http://www.w3.org/2000/svg" aria-hidden="true"><defs><linearGradient id="g" x1="0" y1="0" x2="0.2" y2="1"><stop offset="0" stop-color="#fff4d5"></stop><stop offset="0.45" stop-color="#ffe692"></stop><stop offset="1" stop-color="#c88c18"></stop></linearGradient></defs><path d="M110 470 L107.3 459 L104.9 448 L102.6 437 L100.5 426 L98.6 415 L96.9 404 L95.3 392.9 L94 381.9 L92.8 370.9 L91.9 359.9 L91.1 348.8 L90.5 337.8 L90.1 326.8 L89.9 315.8 L89.8 304.7 L90 293.7 L90.3 282.6 L90.9 271.6 L91.6 260.5 L92.5 249.5 L93.6 238.4 L94.9 227.4 L96.3 216.3 L98 205.3 L99.8 194.2 L101.9 183.2 L104.1 172.1 L106.5 161 L109.1 149.9 L111.9 138.9 L114.8 127.8 L118 116.7 L121.3 105.6 L124.9 94.6 L128.6 83.5 L132.5 72.4 L136.6 61.3 L140.9 50.2 L145.3 39.1 L150 28" fill="none" stroke="url(#g)" stroke-width="1.8" stroke-linecap="round"></path><g fill="url(#g)" opacity="0.94"><path d="M102.6 437 Q88.9 426.3 71.6 428.3 Q85.3 439 102.6 437 Z"></path><path d="M102.6 437 Q119.3 432.2 127.9 417.1 Q111.1 421.8 102.6 437 Z"></path><path d="M100.5 426 Q87.3 415.2 70.3 416.9 Q83.5 427.7 100.5 426 Z"></path><path d="M100.5 426 Q117 421.6 125.6 406.9 Q109.1 411.3 100.5 426 Z"></path><path d="M98.6 415 Q85.8 404.2 69.1 405.6 Q81.9 416.4 98.6 415 Z"></path><path d="M98.6 415 Q114.8 410.9 123.5 396.6 Q107.3 400.7 98.6 415 Z"></path><path d="M96.9 404 Q84.5 393.2 68.1 394.3 Q80.5 405 96.9 404 Z"></path><path d="M96.9 404 Q112.9 400.3 121.6 386.4 Q105.6 390.1 96.9 404 Z"></path><path d="M95.3 392.9 Q83.4 382.2 67.3 383 Q79.3 393.7 95.3 392.9 Z"></path><path d="M95.3 392.9 Q111.1 389.6 119.9 376.1 Q104.1 379.5 95.3 392.9 Z"></path><path d="M94 381.9 Q82.5 371.2 66.7 371.7 Q78.3 382.4 94 381.9 Z"></path><path d="M94 381.9 Q109.4 378.9 118.3 365.9 Q102.8 368.9 94 381.9 Z"></path><path d="M92.8 370.9 Q81.7 360.2 66.3 360.5 Q77.4 371.1 92.8 370.9 Z"></path><path d="M92.8 370.9 Q108 368.2 116.9 355.6 Q101.7 358.3 92.8 370.9 Z"></path><path d="M91.9 359.9 Q81.2 349.2 66.1 349.2 Q76.8 359.9 91.9 359.9 Z"></path><path d="M91.9 359.9 Q106.8 357.5 115.6 345.3 Q100.8 347.7 91.9 359.9 Z"></path><path d="M91.1 348.8 Q80.8 338.3 66.1 338 Q76.4 348.6 91.1 348.8 Z"></path><path d="M91.1 348.8 Q105.7 346.8 114.6 335 Q100 337.1 91.1 348.8 Z"></path><path d="M90.5 337.8 Q80.6 327.3 66.2 326.8 Q76.1 337.3 90.5 337.8 Z"></path><path d="M90.5 337.8 Q104.8 336 113.7 324.7 Q99.4 326.5 90.5 337.8 Z"></path><path d="M90.1 326.8 Q80.6 316.4 66.6 315.6 Q76 326.1 90.1 326.8 Z"></path><path d="M90.1 326.8 Q104.1 325.3 113 314.3 Q99 315.8 90.1 326.8 Z"></path><path d="M89.9 315.8 Q80.8 305.4 67.1 304.5 Q76.2 314.8 89.9 315.8 Z"></path><path d="M89.9 315.8 Q103.6 314.5 112.4 304 Q98.7 305.2 89.9 315.8 Z"></path><path d="M89.8 304.7 Q81.2 294.5 67.8 293.3 Q76.5 303.6 89.8 304.7 Z"></path><path d="M89.8 304.7 Q103.2 303.7 112 293.6 Q98.6 294.6 89.8 304.7 Z"></path><path d="M90 293.7 Q81.7 283.6 68.7 282.2 Q77 292.3 90 293.7 Z"></path><path d="M90 293.7 Q103.1 292.9 111.8 283.2 Q98.7 283.9 90 293.7 Z"></path><path d="M90.3 282.6 Q82.4 272.6 69.8 271.1 Q77.7 281.1 90.3 282.6 Z"></path><path d="M90.3 282.6 Q103.1 282.1 111.8 272.8 Q99 273.3 90.3 282.6 Z"></path><path d="M90.9 271.6 Q83.3 261.7 71 260 Q78.6 269.9 90.9 271.6 Z"></path><path d="M90.9 271.6 Q103.3 271.3 111.9 262.3 Q99.5 262.6 90.9 271.6 Z"></path><path d="M91.6 260.5 Q84.4 250.8 72.5 249 Q79.6 258.7 91.6 260.5 Z"></path><path d="M91.6 260.5 Q103.7 260.5 112.2 251.9 Q100.1 252 91.6 260.5 Z"></path><path d="M92.5 249.5 Q85.7 239.9 74.1 237.9 Q80.9 247.5 92.5 249.5 Z"></path><path d="M92.5 249.5 Q104.3 249.6 112.7 241.4 Q100.9 241.3 92.5 249.5 Z"></path><path d="M93.6 238.4 Q87.1 229 75.9 226.9 Q82.4 236.3 93.6 238.4 Z"></path><path d="M93.6 238.4 Q105 238.8 113.4 230.9 Q101.9 230.6 93.6 238.4 Z"></path><path d="M94.9 227.4 Q88.7 218.1 77.9 215.9 Q84 225.1 94.9 227.4 Z"></path><path d="M94.9 227.4 Q106 227.9 114.2 220.4 Q103.1 219.9 94.9 227.4 Z"></path><path d="M96.3 216.3 Q90.5 207.3 80 204.9 Q85.8 214 96.3 216.3 Z"></path><path d="M96.3 216.3 Q107.1 217 115.2 209.9 Q104.4 209.2 96.3 216.3 Z"></path><path d="M98 205.3 Q92.5 196.4 82.4 193.9 Q87.8 202.8 98 205.3 Z"></path><path d="M98 205.3 Q108.4 206.1 116.4 199.3 Q106 198.5 98 205.3 Z"></path><path d="M99.8 194.2 Q94.7 185.5 84.9 183 Q90.1 191.7 99.8 194.2 Z"></path><path d="M99.8 194.2 Q109.9 195.2 117.7 188.7 Q107.7 187.8 99.8 194.2 Z"></path><path d="M101.9 183.2 Q97 174.7 87.6 172.1 Q92.4 180.5 101.9 183.2 Z"></path><path d="M101.9 183.2 Q111.6 184.2 119.3 178.1 Q109.5 177.1 101.9 183.2 Z"></path><path d="M104.1 172.1 Q99.5 163.8 90.5 161.1 Q95 169.4 104.1 172.1 Z"></path><path d="M104.1 172.1 Q113.5 173.3 121 167.5 Q111.6 166.3 104.1 172.1 Z"></path><path d="M106.5 161 Q102.2 153 93.5 150.2 Q97.8 158.3 106.5 161 Z"></path><path d="M106.5 161 Q115.5 162.3 122.8 156.9 Q113.8 155.6 106.5 161 Z"></path><path d="M109.1 149.9 Q105.1 142.1 96.8 139.4 Q100.7 147.2 109.1 149.9 Z"></path><path d="M109.1 149.9 Q117.8 151.3 124.9 146.2 Q116.2 144.8 109.1 149.9 Z"></path><path d="M111.9 138.9 Q108.2 131.3 100.2 128.5 Q103.9 136.1 111.9 138.9 Z"></path><path d="M111.9 138.9 Q120.2 140.3 127.1 135.5 Q118.8 134 111.9 138.9 Z"></path><path d="M114.8 127.8 Q111.4 120.4 103.8 117.7 Q107.2 125 114.8 127.8 Z"></path><path d="M114.8 127.8 Q122.8 129.3 129.6 124.8 Q121.6 123.3 114.8 127.8 Z"></path><path d="M118 116.7 Q114.8 109.6 107.5 106.8 Q110.7 113.9 118 116.7 Z"></path><path d="M118 116.7 Q125.6 118.3 132.2 114.1 Q124.5 112.5 118 116.7 Z"></path><path d="M121.3 105.6 Q118.4 98.8 111.4 96 Q114.4 102.9 121.3 105.6 Z"></path><path d="M121.3 105.6 Q128.6 107.3 134.9 103.3 Q127.7 101.7 121.3 105.6 Z"></path><path d="M124.9 94.6 Q122.1 88 115.6 85.2 Q118.3 91.8 124.9 94.6 Z"></path><path d="M124.9 94.6 Q131.8 96.2 137.9 92.5 Q131 90.9 124.9 94.6 Z"></path><path d="M128.6 83.5 Q126.1 77.1 119.8 74.4 Q122.4 80.7 128.6 83.5 Z"></path><path d="M128.6 83.5 Q135.2 85.2 141.1 81.7 Q134.5 80 128.6 83.5 Z"></path><path d="M132.5 72.4 Q130.2 66.3 124.3 63.7 Q126.6 69.7 132.5 72.4 Z"></path><path d="M132.5 72.4 Q138.7 74.1 144.4 70.9 Q138.1 69.2 132.5 72.4 Z"></path><path d="M136.6 61.3 Q134.5 55.5 128.9 52.9 Q131 58.7 136.6 61.3 Z"></path><path d="M136.6 61.3 Q142.5 63 147.9 60 Q142 58.3 136.6 61.3 Z"></path><path d="M140.9 50.2 Q139 44.7 133.8 42.1 Q135.7 47.6 140.9 50.2 Z"></path><path d="M140.9 50.2 Q146.4 51.9 151.6 49.2 Q146 47.5 140.9 50.2 Z"></path><path d="M145.3 39.1 Q143.6 33.9 138.7 31.4 Q140.5 36.6 145.3 39.1 Z"></path><path d="M145.3 39.1 Q150.6 40.8 155.4 38.3 Q150.2 36.6 145.3 39.1 Z"></path></g></svg>