<svg viewBox="0 0 420 36" fill="none" xmlns="http://www.w3.org/2000/svg" aria-hidden="true">
  <defs>
    <linearGradient id="dl" x1="0" y1="0" x2="1" y2="0">
      <stop offset="0" stop-color="#ffe692" stop-opacity="0"></stop>
      <stop offset="0.5" stop-color="#ffe692" stop-opacity="0.9"></stop>
      <stop offset="1" stop-color="#ffe692" stop-opacity="0"></stop>
    </linearGradient>
    <linearGradient id="dr" x1="1" y1="0" x2="0" y2="0">
      <stop offset="0" stop-color="#ffe692" stop-opacity="0"></stop>
      <stop offset="0.5" stop-color="#ffe692" stop-opacity="0.9"></stop>
      <stop offset="1" stop-color="#ffe692" stop-opacity="0"></stop>
    </linearGradient>
  </defs>
  <g stroke-width="1.1" fill="none" stroke-linecap="round">
    
    <path d="M10 18 H170" stroke="url(#dl)"></path>
    <path d="M170 18 C180 18 184 12 178 9 C173 7 171 12 176 13" stroke="#ffe692" opacity="0.85"></path>
    <path d="M170 18 C180 18 184 24 178 27 C173 29 171 24 176 23" stroke="#ffe692" opacity="0.85"></path>
    
    <path d="M410 18 H250" stroke="url(#dr)"></path>
    <path d="M250 18 C240 18 236 12 242 9 C247 7 249 12 244 13" stroke="#ffe692" opacity="0.85"></path>
    <path d="M250 18 C240 18 236 24 242 27 C247 29 249 24 244 23" stroke="#ffe692" opacity="0.85"></path>
  </g>
  
  <g fill="#ffe692">
    <path d="M210 6 C214 12 214 24 210 30 C206 24 206 12 210 6 Z" opacity="0.95"></path>
    <circle cx="196" cy="18" r="1.6" opacity="0.8"></circle>
    <circle cx="224" cy="18" r="1.6" opacity="0.8"></circle>
  </g>
</svg>