<svg viewBox="0 0 240 480" xmlns="http://www.w3.org/2000/svg" aria-hidden="true"><defs><linearGradient id="g" x1="0" y1="0" x2="0.2" y2="1"><stop offset="0" stop-color="#fff4d5"></stop><stop offset="0.45" stop-color="#ffe692"></stop><stop offset="1" stop-color="#c88c18"></stop></linearGradient></defs><path d="M30 460 L37.6 451.9 L44.9 443.7 L52 435.4 L58.8 427 L65.3 418.4 L71.5 409.7 L77.5 400.8 L83.2 391.8 L88.6 382.7 L93.8 373.5 L98.6 364.1 L103.2 354.6 L107.5 345 L111.5 335.3 L115.3 325.4 L118.8 315.4 L122 305.2 L125 294.9 L127.6 284.5 L130 274 L132.1 263.3 L134 252.5 L135.5 241.6 L136.8 230.6 L137.8 219.4 L138.6 208.1 L139 196.6 L139.2 185 L139.1 173.3 L138.8 161.5 L138.1 149.5 L137.2 137.4 L136 125.2 L134.5 112.9 L132.8 100.4 L130.8 87.8 L128.5 75 L126 62.1 L123.1 49.1 L120 36" fill="none" stroke="url(#g)" stroke-width="2.4" stroke-linecap="round"></path><g fill="url(#g)" opacity="0.85" stroke="#c88c18" stroke-width="0.4"><path d="M83.2 391.8 Q87.2 367.9 67.3 354.1 Q63.2 378.1 83.2 391.8 Z"></path><path d="M107.5 345 Q108.1 321.9 87.4 311.6 Q86.8 334.7 107.5 345 Z"></path><path d="M125 294.9 Q122.3 273.1 101.5 266.2 Q104.1 288.1 125 294.9 Z"></path><path d="M135.5 241.6 Q130.3 221.5 109.8 217.7 Q115 237.8 135.5 241.6 Z"></path><path d="M139.2 185 Q131.9 166.7 112.3 165.6 Q119.5 183.9 139.2 185 Z"></path><path d="M136 125.2 Q127.3 108.9 108.8 109.8 Q117.5 126.2 136 125.2 Z"></path></g><g fill="url(#g)" stroke="#c88c18" stroke-width="0.5"><path d="M148.8 230.6 Q161.8 241 174.8 230.6 Q161.8 220.2 148.8 230.6 Z"></path><path d="M148.8 230.6 Q148.8 247.2 165 250.9 Q165 234.2 148.8 230.6 Z"></path><path d="M148.8 230.6 Q135.8 240.9 143 255.9 Q156 245.5 148.8 230.6 Z"></path><path d="M148.8 230.6 Q132.6 226.8 125.4 241.8 Q141.6 245.6 148.8 230.6 Z"></path><path d="M148.8 230.6 Q141.6 215.5 125.4 219.3 Q132.6 234.3 148.8 230.6 Z"></path><path d="M148.8 230.6 Q156 215.6 143 205.2 Q135.8 220.2 148.8 230.6 Z"></path><path d="M148.8 230.6 Q165 226.9 165 210.2 Q148.8 213.9 148.8 230.6 Z"></path><circle cx="148.8" cy="230.6" r="5.5" fill="#fff4d5"></circle><path d="M140.3 125.7 Q149.6 133.2 159 125.7 Q149.6 118.2 140.3 125.7 Z"></path><path d="M140.3 125.7 Q140.3 137.7 151.9 140.3 Q152 128.3 140.3 125.7 Z"></path><path d="M140.3 125.7 Q130.9 133.1 136.1 143.9 Q145.5 136.5 140.3 125.7 Z"></path><path d="M140.3 125.7 Q128.6 123 123.4 133.8 Q135.1 136.5 140.3 125.7 Z"></path><path d="M140.3 125.7 Q135.1 114.9 123.4 117.5 Q128.6 128.4 140.3 125.7 Z"></path><path d="M140.3 125.7 Q145.5 114.9 136.1 107.4 Q130.9 118.2 140.3 125.7 Z"></path><path d="M140.3 125.7 Q152 123 151.9 111 Q140.3 113.7 140.3 125.7 Z"></path><circle cx="140.3" cy="125.7" r="4.3" fill="#fff4d5"></circle><path d="M120 36 Q138 50.4 156 36 Q138 21.6 120 36 Z"></path><path d="M120 36 Q120 59.1 142.4 64.1 Q142.5 41.1 120 36 Z"></path><path d="M120 36 Q102 50.3 112 71.1 Q130 56.8 120 36 Z"></path><path d="M120 36 Q97.5 30.8 87.6 51.6 Q110 56.8 120 36 Z"></path><path d="M120 36 Q110 15.2 87.6 20.4 Q97.5 41.2 120 36 Z"></path><path d="M120 36 Q130 15.2 112 0.9 Q102 21.7 120 36 Z"></path><path d="M120 36 Q142.5 30.9 142.4 7.9 Q120 12.9 120 36 Z"></path><circle cx="120" cy="36" r="6.6" fill="#fff4d5"></circle></g></svg>