<svg viewBox="0 0 130 220" xmlns="http://www.w3.org/2000/svg" aria-hidden="true">
  <defs>
    <pattern id="vine" x="0" y="0" width="130" height="220" patternUnits="userSpaceOnUse">
      <g fill="none" stroke="#ffe692" stroke-width="0.9" stroke-linecap="round" opacity="0.55">
        <path d="M32.00 0.00 L33.70 4.58 L35.36 9.17 L36.97 13.75 L38.50 18.33 L39.91 22.92 L41.19 27.50 L42.31 32.08 L43.26 36.67 L44.01 41.25 L44.56 45.83 L44.89 50.42 L45.00 55.00 L44.89 59.58 L44.56 64.17 L44.01 68.75 L43.26 73.33 L42.31 77.92 L41.19 82.50 L39.91 87.08 L38.50 91.67 L36.97 96.25 L35.36 100.83 L33.70 105.42 L32.00 110.00 L30.30 114.58 L28.64 119.17 L27.03 123.75 L25.50 128.33 L24.09 132.92 L22.81 137.50 L21.69 142.08 L20.74 146.67 L19.99 151.25 L19.44 155.83 L19.11 160.42 L19.00 165.00 L19.11 169.58 L19.44 174.17 L19.99 178.75 L20.74 183.33 L21.69 187.92 L22.81 192.50 L24.09 197.08 L25.50 201.67 L27.03 206.25 L28.64 210.83 L30.30 215.42 L32.00 220.00"></path>
        <path d="M97.00 0.00 L95.30 4.58 L93.64 9.17 L92.03 13.75 L90.50 18.33 L89.09 22.92 L87.81 27.50 L86.69 32.08 L85.74 36.67 L84.99 41.25 L84.44 45.83 L84.11 50.42 L84.00 55.00 L84.11 59.58 L84.44 64.17 L84.99 68.75 L85.74 73.33 L86.69 77.92 L87.81 82.50 L89.09 87.08 L90.50 91.67 L92.03 96.25 L93.64 100.83 L95.30 105.42 L97.00 110.00 L98.70 114.58 L100.36 119.17 L101.97 123.75 L103.50 128.33 L104.91 132.92 L106.19 137.50 L107.31 142.08 L108.26 146.67 L109.01 151.25 L109.56 155.83 L109.89 160.42 L110.00 165.00 L109.89 169.58 L109.56 174.17 L109.01 178.75 L108.26 183.33 L107.31 187.92 L106.19 192.50 L104.91 197.08 L103.50 201.67 L101.97 206.25 L100.36 210.83 L98.70 215.42 L97.00 220.00"></path>
      </g>
      <g fill="#ffe692" opacity="0.5">
        <path d="M45.0 55.0 C48.0 48.0 55.0 54.0 56.0 51.0 C54.0 57.0 48.0 58.0 45.0 55.0 Z"></path>
        <path d="M19.0 165.0 C16.0 158.0 9.0 164.0 8.0 161.0 C10.0 167.0 16.0 168.0 19.0 165.0 Z"></path>
        <path d="M84.0 55.0 C81.0 48.0 74.0 54.0 73.0 51.0 C75.0 57.0 81.0 58.0 84.0 55.0 Z"></path>
        <path d="M110.0 165.0 C113.0 158.0 120.0 164.0 121.0 161.0 C119.0 167.0 113.0 168.0 110.0 165.0 Z"></path>
      </g>
      <g fill="#ffe692" opacity="0.4">
        <circle cx="32" cy="0" r="1"></circle><circle cx="32" cy="220" r="1"></circle>
        <circle cx="97" cy="0" r="1"></circle><circle cx="97" cy="220" r="1"></circle>
      </g>
    </pattern>
  </defs>
  <rect width="130" height="220" fill="url(#vine)"></rect>
</svg>