<svg viewBox="0 0 400 400" xmlns="http://www.w3.org/2000/svg" aria-hidden="true"><defs><linearGradient id="g" x1="0" y1="0" x2="0.2" y2="1"><stop offset="0" stop-color="#fff4d5"></stop><stop offset="0.45" stop-color="#ffe692"></stop><stop offset="1" stop-color="#c88c18"></stop></linearGradient></defs>
  <circle cx="200" cy="200" r="190" fill="none" stroke="rgba(255,230,146,0.16)" stroke-width="1"></circle>
  <circle cx="200" cy="200" r="190" fill="none" stroke="url(#g)" stroke-width="1.6" stroke-linecap="round" stroke-dasharray="191 1193.8" transform="rotate(-90 200 200)"></circle>
  <g><path d="M381 200 L390 200" stroke="#ffe692" stroke-width="1.1" opacity="0.5"></path><path d="M382.2 232.1 L387.1 233" stroke="#ffe692" stroke-width="0.6" opacity="0.3"></path><path d="M373.8 263.3 L378.5 265" stroke="#ffe692" stroke-width="0.6" opacity="0.3"></path><path d="M356.8 290.5 L364.5 295" stroke="#ffe692" stroke-width="1.1" opacity="0.5"></path><path d="M341.7 318.9 L345.5 322.1" stroke="#ffe692" stroke-width="0.6" opacity="0.3"></path><path d="M318.9 341.7 L322.1 345.5" stroke="#ffe692" stroke-width="0.6" opacity="0.3"></path><path d="M290.5 356.8 L295 364.5" stroke="#ffe692" stroke-width="1.1" opacity="0.5"></path><path d="M263.3 373.8 L265 378.5" stroke="#ffe692" stroke-width="0.6" opacity="0.3"></path><path d="M232.1 382.2 L233 387.1" stroke="#ffe692" stroke-width="0.6" opacity="0.3"></path><path d="M200 381 L200 390" stroke="#ffe692" stroke-width="1.1" opacity="0.5"></path><path d="M167.9 382.2 L167 387.1" stroke="#ffe692" stroke-width="0.6" opacity="0.3"></path><path d="M136.7 373.8 L135 378.5" stroke="#ffe692" stroke-width="0.6" opacity="0.3"></path><path d="M109.5 356.8 L105 364.5" stroke="#ffe692" stroke-width="1.1" opacity="0.5"></path><path d="M81.1 341.7 L77.9 345.5" stroke="#ffe692" stroke-width="0.6" opacity="0.3"></path><path d="M58.3 318.9 L54.5 322.1" stroke="#ffe692" stroke-width="0.6" opacity="0.3"></path><path d="M43.2 290.5 L35.5 295" stroke="#ffe692" stroke-width="1.1" opacity="0.5"></path><path d="M26.2 263.3 L21.5 265" stroke="#ffe692" stroke-width="0.6" opacity="0.3"></path><path d="M17.8 232.1 L12.9 233" stroke="#ffe692" stroke-width="0.6" opacity="0.3"></path><path d="M19 200 L10 200" stroke="#ffe692" stroke-width="1.1" opacity="0.5"></path><path d="M17.8 167.9 L12.9 167" stroke="#ffe692" stroke-width="0.6" opacity="0.3"></path><path d="M26.2 136.7 L21.5 135" stroke="#ffe692" stroke-width="0.6" opacity="0.3"></path><path d="M43.2 109.5 L35.5 105" stroke="#ffe692" stroke-width="1.1" opacity="0.5"></path><path d="M58.3 81.1 L54.5 77.9" stroke="#ffe692" stroke-width="0.6" opacity="0.3"></path><path d="M81.1 58.3 L77.9 54.5" stroke="#ffe692" stroke-width="0.6" opacity="0.3"></path><path d="M109.5 43.2 L105 35.5" stroke="#ffe692" stroke-width="1.1" opacity="0.5"></path><path d="M136.7 26.2 L135 21.5" stroke="#ffe692" stroke-width="0.6" opacity="0.3"></path><path d="M167.9 17.8 L167 12.9" stroke="#ffe692" stroke-width="0.6" opacity="0.3"></path><path d="M200 19 L200 10" stroke="#ffe692" stroke-width="1.1" opacity="0.5"></path><path d="M232.1 17.8 L233 12.9" stroke="#ffe692" stroke-width="0.6" opacity="0.3"></path><path d="M263.3 26.2 L265 21.5" stroke="#ffe692" stroke-width="0.6" opacity="0.3"></path><path d="M290.5 43.2 L295 35.5" stroke="#ffe692" stroke-width="1.1" opacity="0.5"></path><path d="M318.9 58.3 L322.1 54.5" stroke="#ffe692" stroke-width="0.6" opacity="0.3"></path><path d="M341.7 81.1 L345.5 77.9" stroke="#ffe692" stroke-width="0.6" opacity="0.3"></path><path d="M356.8 109.5 L364.5 105" stroke="#ffe692" stroke-width="1.1" opacity="0.5"></path><path d="M373.8 136.7 L378.5 135" stroke="#ffe692" stroke-width="0.6" opacity="0.3"></path><path d="M382.2 167.9 L387.1 167" stroke="#ffe692" stroke-width="0.6" opacity="0.3"></path></g></svg>