<svg viewBox="0 0 360 420" xmlns="http://www.w3.org/2000/svg" aria-hidden="true"><defs><linearGradient id="g" x1="0" y1="0" x2="0.2" y2="1"><stop offset="0" stop-color="#fff4d5"></stop><stop offset="0.45" stop-color="#ffe692"></stop><stop offset="1" stop-color="#c88c18"></stop></linearGradient></defs><circle cx="180" cy="215" r="172" fill="none" stroke="url(#g)" stroke-width="1.4" opacity="0.55"></circle><circle cx="180" cy="215" r="164" fill="none" stroke="#ffe692" stroke-width="0.7" opacity="0.3"></circle><path d="M180 358 Q185.9 316 180 274" fill="none" stroke="url(#g)" stroke-width="5.4" stroke-linecap="round"></path><path d="M180 274 Q170.8 244.4 153.9 218.5" fill="none" stroke="url(#g)" stroke-width="3.8" stroke-linecap="round"></path><path d="M153.9 218.5 Q138.6 201.8 119.4 190" fill="none" stroke="url(#g)" stroke-width="2.6" stroke-linecap="round"></path><path d="M119.4 190 Q104.1 183.7 87.7 181.9" fill="none" stroke="url(#g)" stroke-width="1.9" stroke-linecap="round"></path><path d="M87.7 181.9 Q75.7 182.5 64.3 186.4" fill="none" stroke="url(#g)" stroke-width="1.3" stroke-linecap="round"></path><path d="M64.3 186.4 Q56.5 190.5 50.2 196.6" fill="none" stroke="url(#g)" stroke-width="0.9" stroke-linecap="round"></path><g fill="url(#g)"><path d="M50.2 196.6 Q38.8 196.3 35.7 207.2 Q47.1 207.6 50.2 196.6 Z"></path></g><path d="M64.3 186.4 Q56.2 183 47.4 182.1" fill="none" stroke="url(#g)" stroke-width="0.9" stroke-linecap="round"></path><g fill="url(#g)"><path d="M47.4 182.1 Q40.4 173 30 177.6 Q37 186.6 47.4 182.1 Z"></path></g><path d="M87.7 181.9 Q79.6 173 69.3 166.7" fill="none" stroke="url(#g)" stroke-width="1.3" stroke-linecap="round"></path><path d="M69.3 166.7 Q61.2 163.3 52.5 162.4" fill="none" stroke="url(#g)" stroke-width="0.9" stroke-linecap="round"></path><g fill="url(#g)"><path d="M52.5 162.4 Q45.5 153.4 35 157.9 Q42 166.9 52.5 162.4 Z"></path></g><path d="M69.3 166.7 Q66.7 158.3 61.9 150.9" fill="none" stroke="url(#g)" stroke-width="0.9" stroke-linecap="round"></path><g fill="url(#g)"><path d="M61.9 150.9 Q64.4 139.8 54.3 134.7 Q51.8 145.8 61.9 150.9 Z"></path></g><path d="M119.4 190 Q114.5 174.2 105.5 160.4" fill="none" stroke="url(#g)" stroke-width="1.9" stroke-linecap="round"></path><path d="M105.5 160.4 Q97.3 151.5 87.1 145.2" fill="none" stroke="url(#g)" stroke-width="1.3" stroke-linecap="round"></path><path d="M87.1 145.2 Q78.9 141.9 70.2 140.9" fill="none" stroke="url(#g)" stroke-width="0.9" stroke-linecap="round"></path><g fill="url(#g)"><path d="M70.2 140.9 Q63.2 131.9 52.8 136.4 Q59.8 145.5 70.2 140.9 Z"></path></g><path d="M87.1 145.2 Q84.5 136.8 79.7 129.5" fill="none" stroke="url(#g)" stroke-width="0.9" stroke-linecap="round"></path><g fill="url(#g)"><path d="M79.7 129.5 Q82.2 118.4 72 113.2 Q69.5 124.3 79.7 129.5 Z"></path></g><path d="M105.5 160.4 Q107.1 148.5 105.5 136.6" fill="none" stroke="url(#g)" stroke-width="1.3" stroke-linecap="round"></path><path d="M105.5 136.6 Q102.9 128.2 98 120.8" fill="none" stroke="url(#g)" stroke-width="0.9" stroke-linecap="round"></path><g fill="url(#g)"><path d="M98 120.8 Q100.5 109.7 90.4 104.5 Q87.9 115.7 98 120.8 Z"></path></g><path d="M105.5 136.6 Q110.3 129.2 112.9 120.8" fill="none" stroke="url(#g)" stroke-width="0.9" stroke-linecap="round"></path><g fill="url(#g)"><path d="M112.9 120.8 Q123 115.7 120.5 104.5 Q110.4 109.7 112.9 120.8 Z"></path></g><path d="M119.4 190 Q110.1 178.4 98 169.8" fill="none" stroke="url(#g)" stroke-width="1.7" stroke-linecap="round"></path><path d="M98 169.8 Q88.3 165 77.6 163.1" fill="none" stroke="url(#g)" stroke-width="1.2" stroke-linecap="round"></path><path d="M77.6 163.1 Q69.7 163 62 165.1" fill="none" stroke="url(#g)" stroke-width="0.9" stroke-linecap="round"></path><g fill="url(#g)"><path d="M62 165.1 Q52.2 159.2 44.2 167.3 Q54 173.1 62 165.1 Z"></path></g><path d="M77.6 163.1 Q72.6 157 66.2 152.4" fill="none" stroke="url(#g)" stroke-width="0.9" stroke-linecap="round"></path><g fill="url(#g)"><path d="M66.2 152.4 Q64.4 141.1 53.1 140 Q54.8 151.3 66.2 152.4 Z"></path></g><path d="M98 169.8 Q95.5 159.3 90.1 149.8" fill="none" stroke="url(#g)" stroke-width="1.2" stroke-linecap="round"></path><path d="M90.1 149.8 Q85.2 143.7 78.7 139.1" fill="none" stroke="url(#g)" stroke-width="0.9" stroke-linecap="round"></path><g fill="url(#g)"><path d="M78.7 139.1 Q77 127.8 65.6 126.7 Q67.4 138 78.7 139.1 Z"></path></g><path d="M90.1 149.8 Q91.7 142.1 91.2 134.2" fill="none" stroke="url(#g)" stroke-width="0.9" stroke-linecap="round"></path><g fill="url(#g)"><path d="M91.2 134.2 Q98.7 125.7 92.3 116.2 Q84.8 124.8 91.2 134.2 Z"></path></g><path d="M153.9 218.5 Q157 196.1 153.9 173.8" fill="none" stroke="url(#g)" stroke-width="2.6" stroke-linecap="round"></path><path d="M153.9 173.8 Q149 158 140 144.2" fill="none" stroke="url(#g)" stroke-width="1.9" stroke-linecap="round"></path><path d="M140 144.2 Q131.8 135.3 121.6 129" fill="none" stroke="url(#g)" stroke-width="1.3" stroke-linecap="round"></path><path d="M121.6 129 Q113.4 125.7 104.7 124.7" fill="none" stroke="url(#g)" stroke-width="0.9" stroke-linecap="round"></path><g fill="url(#g)"><path d="M104.7 124.7 Q97.7 115.7 87.3 120.2 Q94.3 129.2 104.7 124.7 Z"></path></g><path d="M121.6 129 Q119 120.6 114.2 113.2" fill="none" stroke="url(#g)" stroke-width="0.9" stroke-linecap="round"></path><g fill="url(#g)"><path d="M114.2 113.2 Q116.7 102.1 106.5 97 Q104 108.1 114.2 113.2 Z"></path></g><path d="M140 144.2 Q141.6 132.3 140 120.3" fill="none" stroke="url(#g)" stroke-width="1.3" stroke-linecap="round"></path><path d="M140 120.3 Q137.4 111.9 132.5 104.6" fill="none" stroke="url(#g)" stroke-width="0.9" stroke-linecap="round"></path><g fill="url(#g)"><path d="M132.5 104.6 Q135 93.5 124.9 88.3 Q122.4 99.4 132.5 104.6 Z"></path></g><path d="M140 120.3 Q144.8 113 147.4 104.6" fill="none" stroke="url(#g)" stroke-width="0.9" stroke-linecap="round"></path><g fill="url(#g)"><path d="M147.4 104.6 Q157.5 99.4 155 88.3 Q144.9 93.5 147.4 104.6 Z"></path></g><path d="M153.9 173.8 Q162.9 159.9 167.8 144.2" fill="none" stroke="url(#g)" stroke-width="1.9" stroke-linecap="round"></path><path d="M167.8 144.2 Q169.5 132.3 167.8 120.3" fill="none" stroke="url(#g)" stroke-width="1.3" stroke-linecap="round"></path><path d="M167.8 120.3 Q165.2 111.9 160.4 104.6" fill="none" stroke="url(#g)" stroke-width="0.9" stroke-linecap="round"></path><g fill="url(#g)"><path d="M160.4 104.6 Q162.9 93.5 152.7 88.3 Q150.2 99.4 160.4 104.6 Z"></path></g><path d="M167.8 120.3 Q172.6 113 175.2 104.6" fill="none" stroke="url(#g)" stroke-width="0.9" stroke-linecap="round"></path><g fill="url(#g)"><path d="M175.2 104.6 Q185.4 99.4 182.9 88.3 Q172.7 93.5 175.2 104.6 Z"></path></g><path d="M167.8 144.2 Q178.1 137.9 186.2 129" fill="none" stroke="url(#g)" stroke-width="1.3" stroke-linecap="round"></path><path d="M186.2 129 Q191 121.6 193.6 113.2" fill="none" stroke="url(#g)" stroke-width="0.9" stroke-linecap="round"></path><g fill="url(#g)"><path d="M193.6 113.2 Q203.8 108.1 201.3 97 Q191.1 102.1 193.6 113.2 Z"></path></g><path d="M186.2 129 Q194.9 128 203.1 124.7" fill="none" stroke="url(#g)" stroke-width="0.9" stroke-linecap="round"></path><g fill="url(#g)"><path d="M203.1 124.7 Q213.5 129.2 220.5 120.2 Q210 115.7 203.1 124.7 Z"></path></g><path d="M153.9 173.8 Q155.6 159 153.2 144.4" fill="none" stroke="url(#g)" stroke-width="1.7" stroke-linecap="round"></path><path d="M153.2 144.4 Q149.8 134.1 143.7 125.1" fill="none" stroke="url(#g)" stroke-width="1.2" stroke-linecap="round"></path><path d="M143.7 125.1 Q138.2 119.4 131.4 115.4" fill="none" stroke="url(#g)" stroke-width="0.9" stroke-linecap="round"></path><g fill="url(#g)"><path d="M131.4 115.4 Q128.7 104.3 117.3 104.3 Q120 115.3 131.4 115.4 Z"></path></g><path d="M143.7 125.1 Q144.6 117.3 143.3 109.5" fill="none" stroke="url(#g)" stroke-width="0.9" stroke-linecap="round"></path><g fill="url(#g)"><path d="M143.3 109.5 Q150.1 100.3 142.9 91.5 Q136.1 100.6 143.3 109.5 Z"></path></g><path d="M153.2 144.4 Q159 135.2 162 124.7" fill="none" stroke="url(#g)" stroke-width="1.2" stroke-linecap="round"></path><path d="M162 124.7 Q162.9 116.9 161.6 109.1" fill="none" stroke="url(#g)" stroke-width="0.9" stroke-linecap="round"></path><g fill="url(#g)"><path d="M161.6 109.1 Q168.4 99.9 161.2 91.1 Q154.4 100.2 161.6 109.1 Z"></path></g><path d="M162 124.7 Q168.6 120.4 173.8 114.5" fill="none" stroke="url(#g)" stroke-width="0.9" stroke-linecap="round"></path><g fill="url(#g)"><path d="M173.8 114.5 Q185.2 113.9 187.4 102.7 Q176 103.3 173.8 114.5 Z"></path></g><path d="M153.9 218.5 Q147 199.4 135.1 182.9" fill="none" stroke="url(#g)" stroke-width="2.5" stroke-linecap="round"></path><path d="M135.1 182.9 Q124.6 172.4 111.6 165.2" fill="none" stroke="url(#g)" stroke-width="1.7" stroke-linecap="round"></path><path d="M111.6 165.2 Q101.4 161.5 90.6 160.8" fill="none" stroke="url(#g)" stroke-width="1.2" stroke-linecap="round"></path><path d="M90.6 160.8 Q82.7 161.5 75.4 164.4" fill="none" stroke="url(#g)" stroke-width="0.9" stroke-linecap="round"></path><g fill="url(#g)"><path d="M75.4 164.4 Q65 159.7 57.9 168.6 Q68.2 173.3 75.4 164.4 Z"></path></g><path d="M90.6 160.8 Q85 155.2 78.1 151.3" fill="none" stroke="url(#g)" stroke-width="0.9" stroke-linecap="round"></path><g fill="url(#g)"><path d="M78.1 151.3 Q75.1 140.3 63.7 140.5 Q66.7 151.5 78.1 151.3 Z"></path></g><path d="M111.6 165.2 Q108 155 101.6 146.2" fill="none" stroke="url(#g)" stroke-width="1.2" stroke-linecap="round"></path><path d="M101.6 146.2 Q96 140.6 89.1 136.7" fill="none" stroke="url(#g)" stroke-width="0.9" stroke-linecap="round"></path><g fill="url(#g)"><path d="M89.1 136.7 Q86.1 125.7 74.7 125.9 Q77.7 136.9 89.1 136.7 Z"></path></g><path d="M101.6 146.2 Q102.4 138.3 100.9 130.5" fill="none" stroke="url(#g)" stroke-width="0.9" stroke-linecap="round"></path><g fill="url(#g)"><path d="M100.9 130.5 Q107.5 121.2 100.1 112.5 Q93.5 121.8 100.9 130.5 Z"></path></g><path d="M135.1 182.9 Q136.5 168.1 133.8 153.5" fill="none" stroke="url(#g)" stroke-width="1.7" stroke-linecap="round"></path><path d="M133.8 153.5 Q130.1 143.3 123.8 134.5" fill="none" stroke="url(#g)" stroke-width="1.2" stroke-linecap="round"></path><path d="M123.8 134.5 Q118.2 128.9 111.3 125.1" fill="none" stroke="url(#g)" stroke-width="0.9" stroke-linecap="round"></path><g fill="url(#g)"><path d="M111.3 125.1 Q108.3 114.1 96.9 114.2 Q99.9 125.2 111.3 125.1 Z"></path></g><path d="M123.8 134.5 Q124.5 126.6 123.1 118.8" fill="none" stroke="url(#g)" stroke-width="0.9" stroke-linecap="round"></path><g fill="url(#g)"><path d="M123.1 118.8 Q129.7 109.5 122.3 100.9 Q115.7 110.2 123.1 118.8 Z"></path></g><path d="M133.8 153.5 Q139.3 144.2 142.1 133.7" fill="none" stroke="url(#g)" stroke-width="1.2" stroke-linecap="round"></path><path d="M142.1 133.7 Q142.8 125.8 141.4 118" fill="none" stroke="url(#g)" stroke-width="0.9" stroke-linecap="round"></path><g fill="url(#g)"><path d="M141.4 118 Q148 108.7 140.6 100 Q134 109.3 141.4 118 Z"></path></g><path d="M142.1 133.7 Q148.6 129.2 153.7 123.2" fill="none" stroke="url(#g)" stroke-width="0.9" stroke-linecap="round"></path><g fill="url(#g)"><path d="M153.7 123.2 Q165.1 122.3 167 111.1 Q155.7 111.9 153.7 123.2 Z"></path></g><path d="M135.1 182.9 Q131.7 170 124.8 158.5" fill="none" stroke="url(#g)" stroke-width="1.6" stroke-linecap="round"></path><path d="M124.8 158.5 Q118.6 151 110.5 145.6" fill="none" stroke="url(#g)" stroke-width="1.2" stroke-linecap="round"></path><path d="M110.5 145.6 Q104 142.6 97 141.5" fill="none" stroke="url(#g)" stroke-width="0.8" stroke-linecap="round"></path><g fill="url(#g)"><path d="M97 141.5 Q90.4 132.2 79.7 136.3 Q86.3 145.6 97 141.5 Z"></path></g><path d="M110.5 145.6 Q108.7 138.7 105 132.6" fill="none" stroke="url(#g)" stroke-width="0.8" stroke-linecap="round"></path><g fill="url(#g)"><path d="M105 132.6 Q108 121.5 98 116 Q95.1 127 105 132.6 Z"></path></g><path d="M124.8 158.5 Q126.6 148.9 125.7 139.2" fill="none" stroke="url(#g)" stroke-width="1.2" stroke-linecap="round"></path><path d="M125.7 139.2 Q123.8 132.3 120.2 126.2" fill="none" stroke="url(#g)" stroke-width="0.8" stroke-linecap="round"></path><g fill="url(#g)"><path d="M120.2 126.2 Q123.1 115.2 113.2 109.6 Q110.2 120.6 120.2 126.2 Z"></path></g><path d="M125.7 139.2 Q129.8 133.4 132.2 126.7" fill="none" stroke="url(#g)" stroke-width="0.8" stroke-linecap="round"></path><g fill="url(#g)"><path d="M132.2 126.7 Q142.6 121.9 140.5 110.7 Q130.2 115.5 132.2 126.7 Z"></path></g><path d="M180 274 Q196.9 248.1 206.1 218.5" fill="none" stroke="url(#g)" stroke-width="3.8" stroke-linecap="round"></path><path d="M206.1 218.5 Q209.3 196.1 206.1 173.8" fill="none" stroke="url(#g)" stroke-width="2.6" stroke-linecap="round"></path><path d="M206.1 173.8 Q201.2 158 192.2 144.2" fill="none" stroke="url(#g)" stroke-width="1.9" stroke-linecap="round"></path><path d="M192.2 144.2 Q184.1 135.3 173.8 129" fill="none" stroke="url(#g)" stroke-width="1.3" stroke-linecap="round"></path><path d="M173.8 129 Q165.7 125.7 156.9 124.7" fill="none" stroke="url(#g)" stroke-width="0.9" stroke-linecap="round"></path><g fill="url(#g)"><path d="M156.9 124.7 Q150 115.7 139.5 120.2 Q146.5 129.2 156.9 124.7 Z"></path></g><path d="M173.8 129 Q171.2 120.6 166.4 113.2" fill="none" stroke="url(#g)" stroke-width="0.9" stroke-linecap="round"></path><g fill="url(#g)"><path d="M166.4 113.2 Q168.9 102.1 158.7 97 Q156.2 108.1 166.4 113.2 Z"></path></g><path d="M192.2 144.2 Q193.9 132.3 192.2 120.3" fill="none" stroke="url(#g)" stroke-width="1.3" stroke-linecap="round"></path><path d="M192.2 120.3 Q189.6 111.9 184.8 104.6" fill="none" stroke="url(#g)" stroke-width="0.9" stroke-linecap="round"></path><g fill="url(#g)"><path d="M184.8 104.6 Q187.3 93.5 177.1 88.3 Q174.6 99.4 184.8 104.6 Z"></path></g><path d="M192.2 120.3 Q197 113 199.6 104.6" fill="none" stroke="url(#g)" stroke-width="0.9" stroke-linecap="round"></path><g fill="url(#g)"><path d="M199.6 104.6 Q209.8 99.4 207.3 88.3 Q197.1 93.5 199.6 104.6 Z"></path></g><path d="M206.1 173.8 Q215.1 159.9 220 144.2" fill="none" stroke="url(#g)" stroke-width="1.9" stroke-linecap="round"></path><path d="M220 144.2 Q221.7 132.3 220 120.3" fill="none" stroke="url(#g)" stroke-width="1.3" stroke-linecap="round"></path><path d="M220 120.3 Q217.4 111.9 212.6 104.6" fill="none" stroke="url(#g)" stroke-width="0.9" stroke-linecap="round"></path><g fill="url(#g)"><path d="M212.6 104.6 Q215.1 93.5 205 88.3 Q202.5 99.4 212.6 104.6 Z"></path></g><path d="M220 120.3 Q224.8 113 227.5 104.6" fill="none" stroke="url(#g)" stroke-width="0.9" stroke-linecap="round"></path><g fill="url(#g)"><path d="M227.5 104.6 Q237.6 99.4 235.1 88.3 Q225 93.5 227.5 104.6 Z"></path></g><path d="M220 144.2 Q230.3 137.9 238.4 129" fill="none" stroke="url(#g)" stroke-width="1.3" stroke-linecap="round"></path><path d="M238.4 129 Q243.2 121.6 245.8 113.2" fill="none" stroke="url(#g)" stroke-width="0.9" stroke-linecap="round"></path><g fill="url(#g)"><path d="M245.8 113.2 Q256 108.1 253.5 97 Q243.3 102.1 245.8 113.2 Z"></path></g><path d="M238.4 129 Q247.2 128 255.3 124.7" fill="none" stroke="url(#g)" stroke-width="0.9" stroke-linecap="round"></path><g fill="url(#g)"><path d="M255.3 124.7 Q265.7 129.2 272.7 120.2 Q262.3 115.7 255.3 124.7 Z"></path></g><path d="M206.1 173.8 Q208 159 205.7 144.4" fill="none" stroke="url(#g)" stroke-width="1.7" stroke-linecap="round"></path><path d="M205.7 144.4 Q202.3 134 196.2 125.1" fill="none" stroke="url(#g)" stroke-width="1.2" stroke-linecap="round"></path><path d="M196.2 125.1 Q190.8 119.3 184 115.3" fill="none" stroke="url(#g)" stroke-width="0.9" stroke-linecap="round"></path><g fill="url(#g)"><path d="M184 115.3 Q181.4 104.2 170 104 Q172.6 115.1 184 115.3 Z"></path></g><path d="M196.2 125.1 Q197.2 117.2 196 109.4" fill="none" stroke="url(#g)" stroke-width="0.9" stroke-linecap="round"></path><g fill="url(#g)"><path d="M196 109.4 Q202.9 100.3 195.7 91.4 Q188.9 100.5 196 109.4 Z"></path></g><path d="M205.7 144.4 Q211.5 135.2 214.5 124.8" fill="none" stroke="url(#g)" stroke-width="1.2" stroke-linecap="round"></path><path d="M214.5 124.8 Q215.5 116.9 214.3 109.1" fill="none" stroke="url(#g)" stroke-width="0.9" stroke-linecap="round"></path><g fill="url(#g)"><path d="M214.3 109.1 Q221.1 100 214 91.1 Q207.1 100.2 214.3 109.1 Z"></path></g><path d="M214.5 124.8 Q221.2 120.5 226.4 114.6" fill="none" stroke="url(#g)" stroke-width="0.9" stroke-linecap="round"></path><g fill="url(#g)"><path d="M226.4 114.6 Q237.8 114.1 240.1 102.9 Q228.7 103.5 226.4 114.6 Z"></path></g><path d="M206.1 218.5 Q225.4 206.7 240.6 190" fill="none" stroke="url(#g)" stroke-width="2.6" stroke-linecap="round"></path><path d="M240.6 190 Q249.6 176.2 254.5 160.4" fill="none" stroke="url(#g)" stroke-width="1.9" stroke-linecap="round"></path><path d="M254.5 160.4 Q256.2 148.5 254.5 136.6" fill="none" stroke="url(#g)" stroke-width="1.3" stroke-linecap="round"></path><path d="M254.5 136.6 Q251.9 128.2 247.1 120.8" fill="none" stroke="url(#g)" stroke-width="0.9" stroke-linecap="round"></path><g fill="url(#g)"><path d="M247.1 120.8 Q249.6 109.7 239.5 104.5 Q237 115.7 247.1 120.8 Z"></path></g><path d="M254.5 136.6 Q259.4 129.2 262 120.8" fill="none" stroke="url(#g)" stroke-width="0.9" stroke-linecap="round"></path><g fill="url(#g)"><path d="M262 120.8 Q272.1 115.7 269.6 104.5 Q259.5 109.7 262 120.8 Z"></path></g><path d="M254.5 160.4 Q264.8 154.1 272.9 145.2" fill="none" stroke="url(#g)" stroke-width="1.3" stroke-linecap="round"></path><path d="M272.9 145.2 Q277.7 137.9 280.3 129.5" fill="none" stroke="url(#g)" stroke-width="0.9" stroke-linecap="round"></path><g fill="url(#g)"><path d="M280.3 129.5 Q290.5 124.3 288 113.2 Q277.8 118.4 280.3 129.5 Z"></path></g><path d="M272.9 145.2 Q281.7 144.3 289.8 140.9" fill="none" stroke="url(#g)" stroke-width="0.9" stroke-linecap="round"></path><g fill="url(#g)"><path d="M289.8 140.9 Q300.2 145.5 307.2 136.4 Q296.8 131.9 289.8 140.9 Z"></path></g><path d="M240.6 190 Q257 188.2 272.3 181.9" fill="none" stroke="url(#g)" stroke-width="1.9" stroke-linecap="round"></path><path d="M272.3 181.9 Q282.5 175.6 290.7 166.7" fill="none" stroke="url(#g)" stroke-width="1.3" stroke-linecap="round"></path><path d="M290.7 166.7 Q295.5 159.3 298.1 150.9" fill="none" stroke="url(#g)" stroke-width="0.9" stroke-linecap="round"></path><g fill="url(#g)"><path d="M298.1 150.9 Q308.2 145.8 305.7 134.7 Q295.6 139.8 298.1 150.9 Z"></path></g><path d="M290.7 166.7 Q299.4 165.7 307.5 162.4" fill="none" stroke="url(#g)" stroke-width="0.9" stroke-linecap="round"></path><g fill="url(#g)"><path d="M307.5 162.4 Q318 166.9 325 157.9 Q314.5 153.4 307.5 162.4 Z"></path></g><path d="M272.3 181.9 Q283.7 185.8 295.7 186.4" fill="none" stroke="url(#g)" stroke-width="1.3" stroke-linecap="round"></path><path d="M295.7 186.4 Q304.4 185.4 312.6 182.1" fill="none" stroke="url(#g)" stroke-width="0.9" stroke-linecap="round"></path><g fill="url(#g)"><path d="M312.6 182.1 Q323 186.6 330 177.6 Q319.6 173 312.6 182.1 Z"></path></g><path d="M295.7 186.4 Q302 192.5 309.8 196.6" fill="none" stroke="url(#g)" stroke-width="0.9" stroke-linecap="round"></path><g fill="url(#g)"><path d="M309.8 196.6 Q312.9 207.6 324.3 207.2 Q321.2 196.3 309.8 196.6 Z"></path></g><path d="M240.6 190 Q253.4 182.5 263.7 171.8" fill="none" stroke="url(#g)" stroke-width="1.7" stroke-linecap="round"></path><path d="M263.7 171.8 Q269.9 162.9 273.3 152.6" fill="none" stroke="url(#g)" stroke-width="1.2" stroke-linecap="round"></path><path d="M273.3 152.6 Q274.6 144.8 273.7 136.9" fill="none" stroke="url(#g)" stroke-width="0.9" stroke-linecap="round"></path><g fill="url(#g)"><path d="M273.7 136.9 Q280.9 128.1 274.1 118.9 Q266.9 127.8 273.7 136.9 Z"></path></g><path d="M273.3 152.6 Q280.1 148.6 285.6 142.9" fill="none" stroke="url(#g)" stroke-width="0.9" stroke-linecap="round"></path><g fill="url(#g)"><path d="M285.6 142.9 Q297 142.8 299.7 131.7 Q288.3 131.8 285.6 142.9 Z"></path></g><path d="M263.7 171.8 Q274.5 170.8 284.6 166.9" fill="none" stroke="url(#g)" stroke-width="1.2" stroke-linecap="round"></path><path d="M284.6 166.9 Q291.5 162.9 296.9 157.2" fill="none" stroke="url(#g)" stroke-width="0.9" stroke-linecap="round"></path><g fill="url(#g)"><path d="M296.9 157.2 Q308.3 157.2 311.1 146.1 Q299.7 146.2 296.9 157.2 Z"></path></g><path d="M284.6 166.9 Q292.1 169.7 299.9 170.2" fill="none" stroke="url(#g)" stroke-width="0.9" stroke-linecap="round"></path><g fill="url(#g)"><path d="M299.9 170.2 Q307.3 179 317.5 174 Q310.2 165.3 299.9 170.2 Z"></path></g><path d="M206.1 218.5 Q217.2 201.5 223.2 182" fill="none" stroke="url(#g)" stroke-width="2.5" stroke-linecap="round"></path><path d="M223.2 182 Q225.2 167.3 223.1 152.6" fill="none" stroke="url(#g)" stroke-width="1.7" stroke-linecap="round"></path><path d="M223.1 152.6 Q219.8 142.3 213.9 133.2" fill="none" stroke="url(#g)" stroke-width="1.2" stroke-linecap="round"></path><path d="M213.9 133.2 Q208.5 127.4 201.8 123.3" fill="none" stroke="url(#g)" stroke-width="0.9" stroke-linecap="round"></path><g fill="url(#g)"><path d="M201.8 123.3 Q199.3 112.1 187.9 111.8 Q190.4 123 201.8 123.3 Z"></path></g><path d="M213.9 133.2 Q215 125.4 213.8 117.5" fill="none" stroke="url(#g)" stroke-width="0.9" stroke-linecap="round"></path><g fill="url(#g)"><path d="M213.8 117.5 Q220.8 108.5 213.8 99.5 Q206.8 108.6 213.8 117.5 Z"></path></g><path d="M223.1 152.6 Q229 143.5 232.2 133.2" fill="none" stroke="url(#g)" stroke-width="1.2" stroke-linecap="round"></path><path d="M232.2 133.2 Q233.2 125.3 232.1 117.5" fill="none" stroke="url(#g)" stroke-width="0.9" stroke-linecap="round"></path><g fill="url(#g)"><path d="M232.1 117.5 Q239.1 108.5 232.1 99.5 Q225.1 108.5 232.1 117.5 Z"></path></g><path d="M232.2 133.2 Q238.9 129 244.2 123.1" fill="none" stroke="url(#g)" stroke-width="0.9" stroke-linecap="round"></path><g fill="url(#g)"><path d="M244.2 123.1 Q255.6 122.8 258.1 111.6 Q246.7 112 244.2 123.1 Z"></path></g><path d="M223.2 182 Q235.8 174.2 245.8 163.2" fill="none" stroke="url(#g)" stroke-width="1.7" stroke-linecap="round"></path><path d="M245.8 163.2 Q251.7 154.1 254.9 143.8" fill="none" stroke="url(#g)" stroke-width="1.2" stroke-linecap="round"></path><path d="M254.9 143.8 Q255.9 135.9 254.8 128.1" fill="none" stroke="url(#g)" stroke-width="0.9" stroke-linecap="round"></path><g fill="url(#g)"><path d="M254.8 128.1 Q261.8 119.1 254.8 110.1 Q247.8 119.1 254.8 128.1 Z"></path></g><path d="M254.9 143.8 Q261.6 139.6 266.9 133.7" fill="none" stroke="url(#g)" stroke-width="0.9" stroke-linecap="round"></path><g fill="url(#g)"><path d="M266.9 133.7 Q278.3 133.4 280.8 122.2 Q269.4 122.6 266.9 133.7 Z"></path></g><path d="M245.8 163.2 Q256.6 162 266.6 157.8" fill="none" stroke="url(#g)" stroke-width="1.2" stroke-linecap="round"></path><path d="M266.6 157.8 Q273.3 153.7 278.6 147.8" fill="none" stroke="url(#g)" stroke-width="0.9" stroke-linecap="round"></path><g fill="url(#g)"><path d="M278.6 147.8 Q290 147.4 292.5 136.3 Q281.1 136.7 278.6 147.8 Z"></path></g><path d="M266.6 157.8 Q274.1 160.4 282 160.7" fill="none" stroke="url(#g)" stroke-width="0.9" stroke-linecap="round"></path><g fill="url(#g)"><path d="M282 160.7 Q289.5 169.3 299.7 164.1 Q292.1 155.5 282 160.7 Z"></path></g><path d="M223.2 182 Q231.4 171.5 236.4 159.1" fill="none" stroke="url(#g)" stroke-width="1.6" stroke-linecap="round"></path><path d="M236.4 159.1 Q238.6 149.6 238.1 139.9" fill="none" stroke="url(#g)" stroke-width="1.2" stroke-linecap="round"></path><path d="M238.1 139.9 Q236.6 132.9 233.2 126.6" fill="none" stroke="url(#g)" stroke-width="0.8" stroke-linecap="round"></path><g fill="url(#g)"><path d="M233.2 126.6 Q236.6 115.8 227 109.8 Q223.5 120.6 233.2 126.6 Z"></path></g><path d="M238.1 139.9 Q242.5 134.3 245.2 127.7" fill="none" stroke="url(#g)" stroke-width="0.8" stroke-linecap="round"></path><g fill="url(#g)"><path d="M245.2 127.7 Q255.7 123.4 254.2 112.1 Q243.6 116.4 245.2 127.7 Z"></path></g><path d="M236.4 159.1 Q245.2 154.7 252.3 148.1" fill="none" stroke="url(#g)" stroke-width="1.2" stroke-linecap="round"></path><path d="M252.3 148.1 Q256.7 142.5 259.4 135.9" fill="none" stroke="url(#g)" stroke-width="0.8" stroke-linecap="round"></path><g fill="url(#g)"><path d="M259.4 135.9 Q270 131.7 268.4 120.4 Q257.9 124.6 259.4 135.9 Z"></path></g><path d="M252.3 148.1 Q259.5 147.9 266.3 145.8" fill="none" stroke="url(#g)" stroke-width="0.8" stroke-linecap="round"></path><g fill="url(#g)"><path d="M266.3 145.8 Q276.3 151.2 284 142.8 Q274 137.4 266.3 145.8 Z"></path></g><path d="M180 274 Q181.8 246.2 175.9 219" fill="none" stroke="url(#g)" stroke-width="3.6" stroke-linecap="round"></path><path d="M175.9 219 Q168.5 200 156.1 183.9" fill="none" stroke="url(#g)" stroke-width="2.5" stroke-linecap="round"></path><path d="M156.1 183.9 Q145.3 173.7 132.1 166.9" fill="none" stroke="url(#g)" stroke-width="1.7" stroke-linecap="round"></path><path d="M132.1 166.9 Q121.8 163.5 111 163.1" fill="none" stroke="url(#g)" stroke-width="1.2" stroke-linecap="round"></path><path d="M111 163.1 Q103.2 164.1 95.9 167.2" fill="none" stroke="url(#g)" stroke-width="0.9" stroke-linecap="round"></path><g fill="url(#g)"><path d="M95.9 167.2 Q85.4 162.7 78.5 171.8 Q89 176.3 95.9 167.2 Z"></path></g><path d="M111 163.1 Q105.2 157.7 98.2 154" fill="none" stroke="url(#g)" stroke-width="0.9" stroke-linecap="round"></path><g fill="url(#g)"><path d="M98.2 154 Q94.9 143.1 83.5 143.6 Q86.8 154.5 98.2 154 Z"></path></g><path d="M132.1 166.9 Q128.2 156.8 121.6 148.2" fill="none" stroke="url(#g)" stroke-width="1.2" stroke-linecap="round"></path><path d="M121.6 148.2 Q115.8 142.7 108.8 139.1" fill="none" stroke="url(#g)" stroke-width="0.9" stroke-linecap="round"></path><g fill="url(#g)"><path d="M108.8 139.1 Q105.5 128.2 94.1 128.7 Q97.4 139.6 108.8 139.1 Z"></path></g><path d="M121.6 148.2 Q122.1 140.3 120.4 132.5" fill="none" stroke="url(#g)" stroke-width="0.9" stroke-linecap="round"></path><g fill="url(#g)"><path d="M120.4 132.5 Q126.7 123 119.1 114.6 Q112.8 124.1 120.4 132.5 Z"></path></g><path d="M156.1 183.9 Q157.1 169.1 154 154.5" fill="none" stroke="url(#g)" stroke-width="1.7" stroke-linecap="round"></path><path d="M154 154.5 Q150 144.5 143.4 135.9" fill="none" stroke="url(#g)" stroke-width="1.2" stroke-linecap="round"></path><path d="M143.4 135.9 Q137.6 130.4 130.6 126.8" fill="none" stroke="url(#g)" stroke-width="0.9" stroke-linecap="round"></path><g fill="url(#g)"><path d="M130.6 126.8 Q127.3 115.9 115.9 116.4 Q119.2 127.3 130.6 126.8 Z"></path></g><path d="M143.4 135.9 Q143.9 128 142.2 120.2" fill="none" stroke="url(#g)" stroke-width="0.9" stroke-linecap="round"></path><g fill="url(#g)"><path d="M142.2 120.2 Q148.6 110.7 140.9 102.3 Q134.6 111.8 142.2 120.2 Z"></path></g><path d="M154 154.5 Q159.2 145.1 161.6 134.5" fill="none" stroke="url(#g)" stroke-width="1.2" stroke-linecap="round"></path><path d="M161.6 134.5 Q162.2 126.6 160.5 118.9" fill="none" stroke="url(#g)" stroke-width="0.9" stroke-linecap="round"></path><g fill="url(#g)"><path d="M160.5 118.9 Q166.8 109.4 159.2 100.9 Q152.8 110.4 160.5 118.9 Z"></path></g><path d="M161.6 134.5 Q168.1 129.9 173 123.7" fill="none" stroke="url(#g)" stroke-width="0.9" stroke-linecap="round"></path><g fill="url(#g)"><path d="M173 123.7 Q184.3 122.5 185.9 111.2 Q174.6 112.4 173 123.7 Z"></path></g><path d="M156.1 183.9 Q151.3 171.4 143.2 160.8" fill="none" stroke="url(#g)" stroke-width="1.6" stroke-linecap="round"></path><path d="M143.2 160.8 Q136.1 154.1 127.4 149.6" fill="none" stroke="url(#g)" stroke-width="1.2" stroke-linecap="round"></path><path d="M127.4 149.6 Q120.7 147.3 113.6 147.1" fill="none" stroke="url(#g)" stroke-width="0.8" stroke-linecap="round"></path><g fill="url(#g)"><path d="M113.6 147.1 Q106 138.6 95.9 143.8 Q103.5 152.3 113.6 147.1 Z"></path></g><path d="M127.4 149.6 Q124.9 142.9 120.5 137.3" fill="none" stroke="url(#g)" stroke-width="0.8" stroke-linecap="round"></path><g fill="url(#g)"><path d="M120.5 137.3 Q122.2 126 111.7 121.6 Q110 132.8 120.5 137.3 Z"></path></g><path d="M143.2 160.8 Q143.8 151.1 141.8 141.5" fill="none" stroke="url(#g)" stroke-width="1.2" stroke-linecap="round"></path><path d="M141.8 141.5 Q139.2 134.9 134.9 129.2" fill="none" stroke="url(#g)" stroke-width="0.8" stroke-linecap="round"></path><g fill="url(#g)"><path d="M134.9 129.2 Q136.6 117.9 126.1 113.5 Q124.4 124.8 134.9 129.2 Z"></path></g><path d="M141.8 141.5 Q145.3 135.3 146.9 128.4" fill="none" stroke="url(#g)" stroke-width="0.8" stroke-linecap="round"></path><g fill="url(#g)"><path d="M146.9 128.4 Q156.7 122.5 153.4 111.6 Q143.6 117.4 146.9 128.4 Z"></path></g><path d="M175.9 219 Q185.8 201.2 190.4 181.3" fill="none" stroke="url(#g)" stroke-width="2.5" stroke-linecap="round"></path><path d="M190.4 181.3 Q191.3 166.5 188.2 152" fill="none" stroke="url(#g)" stroke-width="1.7" stroke-linecap="round"></path><path d="M188.2 152 Q184.2 141.9 177.6 133.3" fill="none" stroke="url(#g)" stroke-width="1.2" stroke-linecap="round"></path><path d="M177.6 133.3 Q171.9 127.9 164.8 124.3" fill="none" stroke="url(#g)" stroke-width="0.9" stroke-linecap="round"></path><g fill="url(#g)"><path d="M164.8 124.3 Q161.6 113.3 150.2 113.8 Q153.5 124.8 164.8 124.3 Z"></path></g><path d="M177.6 133.3 Q178.1 125.4 176.5 117.7" fill="none" stroke="url(#g)" stroke-width="0.9" stroke-linecap="round"></path><g fill="url(#g)"><path d="M176.5 117.7 Q182.8 108.2 175.1 99.7 Q168.8 109.2 176.5 117.7 Z"></path></g><path d="M188.2 152 Q193.4 142.5 195.9 132" fill="none" stroke="url(#g)" stroke-width="1.2" stroke-linecap="round"></path><path d="M195.9 132 Q196.4 124.1 194.7 116.3" fill="none" stroke="url(#g)" stroke-width="0.9" stroke-linecap="round"></path><g fill="url(#g)"><path d="M194.7 116.3 Q201 106.8 193.4 98.4 Q187.1 107.9 194.7 116.3 Z"></path></g><path d="M195.9 132 Q202.3 127.3 207.2 121.1" fill="none" stroke="url(#g)" stroke-width="0.9" stroke-linecap="round"></path><g fill="url(#g)"><path d="M207.2 121.1 Q218.5 119.9 220.2 108.7 Q208.8 109.8 207.2 121.1 Z"></path></g><path d="M190.4 181.3 Q202.4 172.7 211.6 161" fill="none" stroke="url(#g)" stroke-width="1.7" stroke-linecap="round"></path><path d="M211.6 161 Q216.8 151.5 219.3 140.9" fill="none" stroke="url(#g)" stroke-width="1.2" stroke-linecap="round"></path><path d="M219.3 140.9 Q219.8 133 218.1 125.3" fill="none" stroke="url(#g)" stroke-width="0.9" stroke-linecap="round"></path><g fill="url(#g)"><path d="M218.1 125.3 Q224.4 115.8 216.8 107.4 Q210.5 116.9 218.1 125.3 Z"></path></g><path d="M219.3 140.9 Q225.7 136.3 230.6 130.1" fill="none" stroke="url(#g)" stroke-width="0.9" stroke-linecap="round"></path><g fill="url(#g)"><path d="M230.6 130.1 Q241.9 128.9 243.6 117.6 Q232.2 118.8 230.6 130.1 Z"></path></g><path d="M211.6 161 Q222.2 159 231.9 154.1" fill="none" stroke="url(#g)" stroke-width="1.2" stroke-linecap="round"></path><path d="M231.9 154.1 Q238.3 149.5 243.2 143.3" fill="none" stroke="url(#g)" stroke-width="0.9" stroke-linecap="round"></path><g fill="url(#g)"><path d="M243.2 143.3 Q254.6 142.1 256.2 130.8 Q244.9 132 243.2 143.3 Z"></path></g><path d="M231.9 154.1 Q239.6 156.1 247.5 155.9" fill="none" stroke="url(#g)" stroke-width="0.9" stroke-linecap="round"></path><g fill="url(#g)"><path d="M247.5 155.9 Q255.6 163.9 265.4 158 Q257.2 150 247.5 155.9 Z"></path></g><path d="M190.4 181.3 Q197.3 169.9 200.9 157.1" fill="none" stroke="url(#g)" stroke-width="1.6" stroke-linecap="round"></path><path d="M200.9 157.1 Q201.9 147.4 200.3 137.7" fill="none" stroke="url(#g)" stroke-width="1.2" stroke-linecap="round"></path><path d="M200.3 137.7 Q198 131 193.9 125.2" fill="none" stroke="url(#g)" stroke-width="0.8" stroke-linecap="round"></path><g fill="url(#g)"><path d="M193.9 125.2 Q196 114 185.7 109.1 Q183.6 120.3 193.9 125.2 Z"></path></g><path d="M200.3 137.7 Q204 131.7 205.9 124.8" fill="none" stroke="url(#g)" stroke-width="0.8" stroke-linecap="round"></path><g fill="url(#g)"><path d="M205.9 124.8 Q215.9 119.3 213.1 108.3 Q203 113.8 205.9 124.8 Z"></path></g><path d="M200.9 157.1 Q209 151.7 215.4 144.3" fill="none" stroke="url(#g)" stroke-width="1.2" stroke-linecap="round"></path><path d="M215.4 144.3 Q219.1 138.2 221 131.4" fill="none" stroke="url(#g)" stroke-width="0.8" stroke-linecap="round"></path><g fill="url(#g)"><path d="M221 131.4 Q231 125.9 228.2 114.8 Q218.2 120.3 221 131.4 Z"></path></g><path d="M215.4 144.3 Q222.4 143.3 228.9 140.4" fill="none" stroke="url(#g)" stroke-width="0.8" stroke-linecap="round"></path><g fill="url(#g)"><path d="M228.9 140.4 Q239.5 144.6 246.2 135.4 Q235.6 131.1 228.9 140.4 Z"></path></g><path d="M175.9 219 Q177.5 200.7 174 182.8" fill="none" stroke="url(#g)" stroke-width="2.4" stroke-linecap="round"></path><path d="M174 182.8 Q169.3 170.2 161.4 159.5" fill="none" stroke="url(#g)" stroke-width="1.6" stroke-linecap="round"></path><path d="M161.4 159.5 Q154.5 152.6 145.9 148" fill="none" stroke="url(#g)" stroke-width="1.2" stroke-linecap="round"></path><path d="M145.9 148 Q139.2 145.6 132.1 145.2" fill="none" stroke="url(#g)" stroke-width="0.8" stroke-linecap="round"></path><g fill="url(#g)"><path d="M132.1 145.2 Q124.6 136.6 114.4 141.7 Q121.9 150.3 132.1 145.2 Z"></path></g><path d="M145.9 148 Q143.4 141.3 139.2 135.5" fill="none" stroke="url(#g)" stroke-width="0.8" stroke-linecap="round"></path><g fill="url(#g)"><path d="M139.2 135.5 Q141.1 124.3 130.7 119.7 Q128.8 130.9 139.2 135.5 Z"></path></g><path d="M161.4 159.5 Q162.3 149.7 160.4 140.2" fill="none" stroke="url(#g)" stroke-width="1.2" stroke-linecap="round"></path><path d="M160.4 140.2 Q157.9 133.5 153.7 127.7" fill="none" stroke="url(#g)" stroke-width="0.8" stroke-linecap="round"></path><g fill="url(#g)"><path d="M153.7 127.7 Q155.6 116.5 145.2 111.9 Q143.3 123.1 153.7 127.7 Z"></path></g><path d="M160.4 140.2 Q164 134 165.7 127.1" fill="none" stroke="url(#g)" stroke-width="0.8" stroke-linecap="round"></path><g fill="url(#g)"><path d="M165.7 127.1 Q175.6 121.4 172.5 110.4 Q162.6 116.1 165.7 127.1 Z"></path></g><path d="M174 182.8 Q180.7 171.2 183.9 158.2" fill="none" stroke="url(#g)" stroke-width="1.6" stroke-linecap="round"></path><path d="M183.9 158.2 Q184.8 148.5 182.9 138.9" fill="none" stroke="url(#g)" stroke-width="1.2" stroke-linecap="round"></path><path d="M182.9 138.9 Q180.4 132.3 176.2 126.5" fill="none" stroke="url(#g)" stroke-width="0.8" stroke-linecap="round"></path><g fill="url(#g)"><path d="M176.2 126.5 Q178.1 115.3 167.7 110.7 Q165.8 121.9 176.2 126.5 Z"></path></g><path d="M182.9 138.9 Q186.5 132.8 188.2 125.9" fill="none" stroke="url(#g)" stroke-width="0.8" stroke-linecap="round"></path><g fill="url(#g)"><path d="M188.2 125.9 Q198.1 120.2 195 109.2 Q185.1 114.9 188.2 125.9 Z"></path></g><path d="M183.9 158.2 Q192 152.7 198.2 145.1" fill="none" stroke="url(#g)" stroke-width="1.2" stroke-linecap="round"></path><path d="M198.2 145.1 Q201.7 139 203.5 132.1" fill="none" stroke="url(#g)" stroke-width="0.8" stroke-linecap="round"></path><g fill="url(#g)"><path d="M203.5 132.1 Q213.3 126.4 210.2 115.4 Q200.4 121.1 203.5 132.1 Z"></path></g><path d="M198.2 145.1 Q205.2 144 211.6 140.9" fill="none" stroke="url(#g)" stroke-width="0.8" stroke-linecap="round"></path><g fill="url(#g)"><path d="M211.6 140.9 Q222.3 144.9 228.8 135.5 Q218.1 131.5 211.6 140.9 Z"></path></g><path d="M174 182.8 Q176 170.9 174.7 158.9" fill="none" stroke="url(#g)" stroke-width="1.6" stroke-linecap="round"></path><path d="M174.7 158.9 Q172.4 150.5 167.8 143" fill="none" stroke="url(#g)" stroke-width="1.1" stroke-linecap="round"></path><path d="M167.8 143 Q163.6 138.1 158.3 134.6" fill="none" stroke="url(#g)" stroke-width="0.8" stroke-linecap="round"></path><g fill="url(#g)"><path d="M158.3 134.6 Q156.1 123.4 144.8 122.7 Q146.9 133.9 158.3 134.6 Z"></path></g><path d="M167.8 143 Q168.9 136.7 168.2 130.3" fill="none" stroke="url(#g)" stroke-width="0.8" stroke-linecap="round"></path><g fill="url(#g)"><path d="M168.2 130.3 Q175.5 121.5 168.8 112.3 Q161.5 121.1 168.2 130.3 Z"></path></g><path d="M174.7 158.9 Q179.8 151.8 182.6 143.5" fill="none" stroke="url(#g)" stroke-width="1.1" stroke-linecap="round"></path><path d="M182.6 143.5 Q183.7 137.1 183 130.8" fill="none" stroke="url(#g)" stroke-width="0.8" stroke-linecap="round"></path><g fill="url(#g)"><path d="M183 130.8 Q190.3 122 183.6 112.8 Q176.3 121.5 183 130.8 Z"></path></g><path d="M182.6 143.5 Q188.2 140.3 192.6 135.7" fill="none" stroke="url(#g)" stroke-width="0.8" stroke-linecap="round"></path><g fill="url(#g)"><path d="M192.6 135.7 Q204 135.7 206.9 124.6 Q195.5 124.6 192.6 135.7 Z"></path></g><path d="M180 358 L180 390" fill="none" stroke="url(#g)" stroke-width="3.4" stroke-linecap="round" opacity="0.7"></path><path d="M180 390 L190.7 409.7" fill="none" stroke="url(#g)" stroke-width="2.4" stroke-linecap="round" opacity="0.7"></path><path d="M190.7 409.7 L203.9 418.1" fill="none" stroke="url(#g)" stroke-width="1.7" stroke-linecap="round" opacity="0.7"></path><path d="M203.9 418.1 L214.9 418.9" fill="none" stroke="url(#g)" stroke-width="1.2" stroke-linecap="round" opacity="0.7"></path><path d="M203.9 418.1 L209.2 427.8" fill="none" stroke="url(#g)" stroke-width="1.2" stroke-linecap="round" opacity="0.7"></path><path d="M190.7 409.7 L190.7 425.3" fill="none" stroke="url(#g)" stroke-width="1.7" stroke-linecap="round" opacity="0.7"></path><path d="M190.7 425.3 L196 435" fill="none" stroke="url(#g)" stroke-width="1.2" stroke-linecap="round" opacity="0.7"></path><path d="M190.7 425.3 L185.5 435" fill="none" stroke="url(#g)" stroke-width="1.2" stroke-linecap="round" opacity="0.7"></path><path d="M180 390 L169.3 409.7" fill="none" stroke="url(#g)" stroke-width="2.4" stroke-linecap="round" opacity="0.7"></path><path d="M169.3 409.7 L169.3 425.3" fill="none" stroke="url(#g)" stroke-width="1.7" stroke-linecap="round" opacity="0.7"></path><path d="M169.3 425.3 L174.5 435" fill="none" stroke="url(#g)" stroke-width="1.2" stroke-linecap="round" opacity="0.7"></path><path d="M169.3 425.3 L164 435" fill="none" stroke="url(#g)" stroke-width="1.2" stroke-linecap="round" opacity="0.7"></path><path d="M169.3 409.7 L156.1 418.1" fill="none" stroke="url(#g)" stroke-width="1.7" stroke-linecap="round" opacity="0.7"></path><path d="M156.1 418.1 L150.8 427.8" fill="none" stroke="url(#g)" stroke-width="1.2" stroke-linecap="round" opacity="0.7"></path><path d="M156.1 418.1 L145.1 418.9" fill="none" stroke="url(#g)" stroke-width="1.2" stroke-linecap="round" opacity="0.7"></path></svg>