<svg viewBox="0 0 360 420" xmlns="http://www.w3.org/2000/svg" aria-hidden="true"><defs><linearGradient id="g" x1="0" y1="0" x2="0.2" y2="1"><stop offset="0" stop-color="#fff4d5"></stop><stop offset="0.45" stop-color="#ffe692"></stop><stop offset="1" stop-color="#c88c18"></stop></linearGradient></defs><path d="M180 358 Q185.9 316 180 274" fill="none" stroke="url(#g)" stroke-width="5.4" stroke-linecap="round"></path><path d="M180 274 Q170.8 244.4 153.9 218.5" fill="none" stroke="url(#g)" stroke-width="3.8" stroke-linecap="round"></path><path d="M153.9 218.5 Q138.6 201.8 119.4 190" fill="none" stroke="url(#g)" stroke-width="2.6" stroke-linecap="round"></path><path d="M119.4 190 Q104.1 183.7 87.7 181.9" fill="none" stroke="url(#g)" stroke-width="1.9" stroke-linecap="round"></path><path d="M87.7 181.9 Q75.7 182.5 64.3 186.4" fill="none" stroke="url(#g)" stroke-width="1.3" stroke-linecap="round"></path><path d="M64.3 186.4 Q56.5 190.5 50.2 196.6" fill="none" stroke="url(#g)" stroke-width="0.9" stroke-linecap="round"></path><g fill="url(#g)"><path d="M50.2 196.6 Q38.8 196.3 35.7 207.2 Q47.1 207.6 50.2 196.6 Z"></path></g><path d="M64.3 186.4 Q56.2 183 47.4 182.1" fill="none" stroke="url(#g)" stroke-width="0.9" stroke-linecap="round"></path><g fill="url(#g)"><path d="M47.4 182.1 Q40.4 173 30 177.6 Q37 186.6 47.4 182.1 Z"></path></g><path d="M87.7 181.9 Q79.6 173 69.3 166.7" fill="none" stroke="url(#g)" stroke-width="1.3" stroke-linecap="round"></path><path d="M69.3 166.7 Q61.2 163.3 52.5 162.4" fill="none" stroke="url(#g)" stroke-width="0.9" stroke-linecap="round"></path><g fill="url(#g)"><path d="M52.5 162.4 Q45.5 153.4 35 157.9 Q42 166.9 52.5 162.4 Z"></path></g><path d="M69.3 166.7 Q66.7 158.3 61.9 150.9" fill="none" stroke="url(#g)" stroke-width="0.9" stroke-linecap="round"></path><g fill="url(#g)"><path d="M61.9 150.9 Q64.4 139.8 54.3 134.7 Q51.8 145.8 61.9 150.9 Z"></path></g><path d="M119.4 190 Q114.5 174.2 105.5 160.4" fill="none" stroke="url(#g)" stroke-width="1.9" stroke-linecap="round"></path><path d="M105.5 160.4 Q97.3 151.5 87.1 145.2" fill="none" stroke="url(#g)" stroke-width="1.3" stroke-linecap="round"></path><path d="M87.1 145.2 Q78.9 141.9 70.2 140.9" fill="none" stroke="url(#g)" stroke-width="0.9" stroke-linecap="round"></path><g fill="url(#g)"><path d="M70.2 140.9 Q63.2 131.9 52.8 136.4 Q59.8 145.5 70.2 140.9 Z"></path></g><path d="M87.1 145.2 Q84.5 136.8 79.7 129.5" fill="none" stroke="url(#g)" stroke-width="0.9" stroke-linecap="round"></path><g fill="url(#g)"><path d="M79.7 129.5 Q82.2 118.4 72 113.2 Q69.5 124.3 79.7 129.5 Z"></path></g><path d="M105.5 160.4 Q107.1 148.5 105.5 136.6" fill="none" stroke="url(#g)" stroke-width="1.3" stroke-linecap="round"></path><path d="M105.5 136.6 Q102.9 128.2 98 120.8" fill="none" stroke="url(#g)" stroke-width="0.9" stroke-linecap="round"></path><g fill="url(#g)"><path d="M98 120.8 Q100.5 109.7 90.4 104.5 Q87.9 115.7 98 120.8 Z"></path></g><path d="M105.5 136.6 Q110.3 129.2 112.9 120.8" fill="none" stroke="url(#g)" stroke-width="0.9" stroke-linecap="round"></path><g fill="url(#g)"><path d="M112.9 120.8 Q123 115.7 120.5 104.5 Q110.4 109.7 112.9 120.8 Z"></path></g><path d="M119.4 190 Q110.2 178.3 98.2 169.6" fill="none" stroke="url(#g)" stroke-width="1.7" stroke-linecap="round"></path><path d="M98.2 169.6 Q88.5 164.7 77.9 162.7" fill="none" stroke="url(#g)" stroke-width="1.2" stroke-linecap="round"></path><path d="M77.9 162.7 Q69.9 162.5 62.3 164.5" fill="none" stroke="url(#g)" stroke-width="0.9" stroke-linecap="round"></path><g fill="url(#g)"><path d="M62.3 164.5 Q52.5 158.6 44.4 166.6 Q54.1 172.5 62.3 164.5 Z"></path></g><path d="M77.9 162.7 Q73 156.5 66.6 151.9" fill="none" stroke="url(#g)" stroke-width="0.9" stroke-linecap="round"></path><g fill="url(#g)"><path d="M66.6 151.9 Q64.9 140.6 53.6 139.4 Q55.2 150.7 66.6 151.9 Z"></path></g><path d="M98.2 169.6 Q95.8 159 90.5 149.6" fill="none" stroke="url(#g)" stroke-width="1.2" stroke-linecap="round"></path><path d="M90.5 149.6 Q85.6 143.3 79.2 138.7" fill="none" stroke="url(#g)" stroke-width="0.9" stroke-linecap="round"></path><g fill="url(#g)"><path d="M79.2 138.7 Q77.6 127.4 66.3 126.2 Q67.9 137.5 79.2 138.7 Z"></path></g><path d="M90.5 149.6 Q92.2 141.8 91.7 133.9" fill="none" stroke="url(#g)" stroke-width="0.9" stroke-linecap="round"></path><g fill="url(#g)"><path d="M91.7 133.9 Q99.4 125.5 93.1 116 Q85.4 124.4 91.7 133.9 Z"></path></g><path d="M153.9 218.5 Q157 196.1 153.9 173.8" fill="none" stroke="url(#g)" stroke-width="2.6" stroke-linecap="round"></path><path d="M153.9 173.8 Q149 158 140 144.2" fill="none" stroke="url(#g)" stroke-width="1.9" stroke-linecap="round"></path><path d="M140 144.2 Q131.8 135.3 121.6 129" fill="none" stroke="url(#g)" stroke-width="1.3" stroke-linecap="round"></path><path d="M121.6 129 Q113.4 125.7 104.7 124.7" fill="none" stroke="url(#g)" stroke-width="0.9" stroke-linecap="round"></path><g fill="url(#g)"><path d="M104.7 124.7 Q97.7 115.7 87.3 120.2 Q94.3 129.2 104.7 124.7 Z"></path></g><path d="M121.6 129 Q119 120.6 114.2 113.2" fill="none" stroke="url(#g)" stroke-width="0.9" stroke-linecap="round"></path><g fill="url(#g)"><path d="M114.2 113.2 Q116.7 102.1 106.5 97 Q104 108.1 114.2 113.2 Z"></path></g><path d="M140 144.2 Q141.6 132.3 140 120.3" fill="none" stroke="url(#g)" stroke-width="1.3" stroke-linecap="round"></path><path d="M140 120.3 Q137.4 111.9 132.5 104.6" fill="none" stroke="url(#g)" stroke-width="0.9" stroke-linecap="round"></path><g fill="url(#g)"><path d="M132.5 104.6 Q135 93.5 124.9 88.3 Q122.4 99.4 132.5 104.6 Z"></path></g><path d="M140 120.3 Q144.8 113 147.4 104.6" fill="none" stroke="url(#g)" stroke-width="0.9" stroke-linecap="round"></path><g fill="url(#g)"><path d="M147.4 104.6 Q157.5 99.4 155 88.3 Q144.9 93.5 147.4 104.6 Z"></path></g><path d="M153.9 173.8 Q162.9 159.9 167.8 144.2" fill="none" stroke="url(#g)" stroke-width="1.9" stroke-linecap="round"></path><path d="M167.8 144.2 Q169.5 132.3 167.8 120.3" fill="none" stroke="url(#g)" stroke-width="1.3" stroke-linecap="round"></path><path d="M167.8 120.3 Q165.2 111.9 160.4 104.6" fill="none" stroke="url(#g)" stroke-width="0.9" stroke-linecap="round"></path><g fill="url(#g)"><path d="M160.4 104.6 Q162.9 93.5 152.7 88.3 Q150.2 99.4 160.4 104.6 Z"></path></g><path d="M167.8 120.3 Q172.6 113 175.2 104.6" fill="none" stroke="url(#g)" stroke-width="0.9" stroke-linecap="round"></path><g fill="url(#g)"><path d="M175.2 104.6 Q185.4 99.4 182.9 88.3 Q172.7 93.5 175.2 104.6 Z"></path></g><path d="M167.8 144.2 Q178.1 137.9 186.2 129" fill="none" stroke="url(#g)" stroke-width="1.3" stroke-linecap="round"></path><path d="M186.2 129 Q191 121.6 193.6 113.2" fill="none" stroke="url(#g)" stroke-width="0.9" stroke-linecap="round"></path><g fill="url(#g)"><path d="M193.6 113.2 Q203.8 108.1 201.3 97 Q191.1 102.1 193.6 113.2 Z"></path></g><path d="M186.2 129 Q194.9 128 203.1 124.7" fill="none" stroke="url(#g)" stroke-width="0.9" stroke-linecap="round"></path><g fill="url(#g)"><path d="M203.1 124.7 Q213.5 129.2 220.5 120.2 Q210 115.7 203.1 124.7 Z"></path></g><path d="M153.9 173.8 Q155.3 159 152.6 144.4" fill="none" stroke="url(#g)" stroke-width="1.7" stroke-linecap="round"></path><path d="M152.6 144.4 Q148.9 134.2 142.5 125.4" fill="none" stroke="url(#g)" stroke-width="1.2" stroke-linecap="round"></path><path d="M142.5 125.4 Q136.9 119.8 130 116" fill="none" stroke="url(#g)" stroke-width="0.9" stroke-linecap="round"></path><g fill="url(#g)"><path d="M130 116 Q127.1 104.9 115.7 105.1 Q118.6 116.1 130 116 Z"></path></g><path d="M142.5 125.4 Q143.3 117.5 141.8 109.7" fill="none" stroke="url(#g)" stroke-width="0.9" stroke-linecap="round"></path><g fill="url(#g)"><path d="M141.8 109.7 Q148.4 100.4 141 91.7 Q134.4 101.1 141.8 109.7 Z"></path></g><path d="M152.6 144.4 Q158.1 135 160.8 124.6" fill="none" stroke="url(#g)" stroke-width="1.2" stroke-linecap="round"></path><path d="M160.8 124.6 Q161.6 116.7 160.1 108.9" fill="none" stroke="url(#g)" stroke-width="0.9" stroke-linecap="round"></path><g fill="url(#g)"><path d="M160.1 108.9 Q166.7 99.6 159.3 90.9 Q152.7 100.2 160.1 108.9 Z"></path></g><path d="M160.8 124.6 Q167.4 120.1 172.4 114" fill="none" stroke="url(#g)" stroke-width="0.9" stroke-linecap="round"></path><g fill="url(#g)"><path d="M172.4 114 Q183.8 113.2 185.8 102 Q174.4 102.8 172.4 114 Z"></path></g><path d="M153.9 218.5 Q147.2 199.3 135.6 182.6" fill="none" stroke="url(#g)" stroke-width="2.5" stroke-linecap="round"></path><path d="M135.6 182.6 Q125.2 172 112.3 164.6" fill="none" stroke="url(#g)" stroke-width="1.7" stroke-linecap="round"></path><path d="M112.3 164.6 Q102.2 160.8 91.3 160" fill="none" stroke="url(#g)" stroke-width="1.2" stroke-linecap="round"></path><path d="M91.3 160 Q83.5 160.6 76.1 163.4" fill="none" stroke="url(#g)" stroke-width="0.9" stroke-linecap="round"></path><g fill="url(#g)"><path d="M76.1 163.4 Q65.7 158.6 58.5 167.4 Q68.8 172.2 76.1 163.4 Z"></path></g><path d="M91.3 160 Q85.8 154.3 79 150.4" fill="none" stroke="url(#g)" stroke-width="0.9" stroke-linecap="round"></path><g fill="url(#g)"><path d="M79 150.4 Q76.1 139.3 64.7 139.4 Q67.6 150.4 79 150.4 Z"></path></g><path d="M112.3 164.6 Q108.8 154.4 102.5 145.5" fill="none" stroke="url(#g)" stroke-width="1.2" stroke-linecap="round"></path><path d="M102.5 145.5 Q97 139.9 90.2 135.9" fill="none" stroke="url(#g)" stroke-width="0.9" stroke-linecap="round"></path><g fill="url(#g)"><path d="M90.2 135.9 Q87.3 124.9 75.9 124.9 Q78.7 135.9 90.2 135.9 Z"></path></g><path d="M102.5 145.5 Q103.4 137.6 102 129.9" fill="none" stroke="url(#g)" stroke-width="0.9" stroke-linecap="round"></path><g fill="url(#g)"><path d="M102 129.9 Q108.7 120.6 101.5 111.9 Q94.8 121.1 102 129.9 Z"></path></g><path d="M135.6 182.6 Q137.1 167.9 134.6 153.2" fill="none" stroke="url(#g)" stroke-width="1.7" stroke-linecap="round"></path><path d="M134.6 153.2 Q131.1 143 124.9 134.1" fill="none" stroke="url(#g)" stroke-width="1.2" stroke-linecap="round"></path><path d="M124.9 134.1 Q119.3 128.5 112.5 124.5" fill="none" stroke="url(#g)" stroke-width="0.9" stroke-linecap="round"></path><g fill="url(#g)"><path d="M112.5 124.5 Q109.6 113.5 98.2 113.5 Q101.1 124.6 112.5 124.5 Z"></path></g><path d="M124.9 134.1 Q125.7 126.3 124.4 118.5" fill="none" stroke="url(#g)" stroke-width="0.9" stroke-linecap="round"></path><g fill="url(#g)"><path d="M124.4 118.5 Q131.1 109.2 123.8 100.5 Q117.1 109.7 124.4 118.5 Z"></path></g><path d="M134.6 153.2 Q140.3 144 143.1 133.5" fill="none" stroke="url(#g)" stroke-width="1.2" stroke-linecap="round"></path><path d="M143.1 133.5 Q144 125.7 142.6 117.9" fill="none" stroke="url(#g)" stroke-width="0.9" stroke-linecap="round"></path><g fill="url(#g)"><path d="M142.6 117.9 Q149.3 108.7 142.1 99.9 Q135.4 109.1 142.6 117.9 Z"></path></g><path d="M143.1 133.5 Q149.7 129.2 154.9 123.2" fill="none" stroke="url(#g)" stroke-width="0.9" stroke-linecap="round"></path><g fill="url(#g)"><path d="M154.9 123.2 Q166.3 122.5 168.4 111.3 Q157 112 154.9 123.2 Z"></path></g><path d="M135.6 182.6 Q132.2 169.7 125.4 158.2" fill="none" stroke="url(#g)" stroke-width="1.6" stroke-linecap="round"></path><path d="M125.4 158.2 Q119.1 150.7 111 145.3" fill="none" stroke="url(#g)" stroke-width="1.2" stroke-linecap="round"></path><path d="M111 145.3 Q104.6 142.3 97.5 141.1" fill="none" stroke="url(#g)" stroke-width="0.8" stroke-linecap="round"></path><g fill="url(#g)"><path d="M97.5 141.1 Q91 131.8 80.3 135.9 Q86.9 145.2 97.5 141.1 Z"></path></g><path d="M111 145.3 Q109.2 138.4 105.6 132.2" fill="none" stroke="url(#g)" stroke-width="0.8" stroke-linecap="round"></path><g fill="url(#g)"><path d="M105.6 132.2 Q108.6 121.2 98.7 115.6 Q95.7 126.6 105.6 132.2 Z"></path></g><path d="M125.4 158.2 Q127.1 148.6 126.2 138.9" fill="none" stroke="url(#g)" stroke-width="1.2" stroke-linecap="round"></path><path d="M126.2 138.9 Q124.4 132 120.8 125.9" fill="none" stroke="url(#g)" stroke-width="0.8" stroke-linecap="round"></path><g fill="url(#g)"><path d="M120.8 125.9 Q123.8 114.9 113.9 109.3 Q110.9 120.3 120.8 125.9 Z"></path></g><path d="M126.2 138.9 Q130.4 133.1 132.8 126.4" fill="none" stroke="url(#g)" stroke-width="0.8" stroke-linecap="round"></path><g fill="url(#g)"><path d="M132.8 126.4 Q143.2 121.7 141.2 110.5 Q130.8 115.2 132.8 126.4 Z"></path></g><path d="M180 274 Q196.9 248.1 206.1 218.5" fill="none" stroke="url(#g)" stroke-width="3.8" stroke-linecap="round"></path><path d="M206.1 218.5 Q209.3 196.1 206.1 173.8" fill="none" stroke="url(#g)" stroke-width="2.6" stroke-linecap="round"></path><path d="M206.1 173.8 Q201.2 158 192.2 144.2" fill="none" stroke="url(#g)" stroke-width="1.9" stroke-linecap="round"></path><path d="M192.2 144.2 Q184.1 135.3 173.8 129" fill="none" stroke="url(#g)" stroke-width="1.3" stroke-linecap="round"></path><path d="M173.8 129 Q165.7 125.7 156.9 124.7" fill="none" stroke="url(#g)" stroke-width="0.9" stroke-linecap="round"></path><g fill="url(#g)"><path d="M156.9 124.7 Q150 115.7 139.5 120.2 Q146.5 129.2 156.9 124.7 Z"></path></g><path d="M173.8 129 Q171.2 120.6 166.4 113.2" fill="none" stroke="url(#g)" stroke-width="0.9" stroke-linecap="round"></path><g fill="url(#g)"><path d="M166.4 113.2 Q168.9 102.1 158.7 97 Q156.2 108.1 166.4 113.2 Z"></path></g><path d="M192.2 144.2 Q193.9 132.3 192.2 120.3" fill="none" stroke="url(#g)" stroke-width="1.3" stroke-linecap="round"></path><path d="M192.2 120.3 Q189.6 111.9 184.8 104.6" fill="none" stroke="url(#g)" stroke-width="0.9" stroke-linecap="round"></path><g fill="url(#g)"><path d="M184.8 104.6 Q187.3 93.5 177.1 88.3 Q174.6 99.4 184.8 104.6 Z"></path></g><path d="M192.2 120.3 Q197 113 199.6 104.6" fill="none" stroke="url(#g)" stroke-width="0.9" stroke-linecap="round"></path><g fill="url(#g)"><path d="M199.6 104.6 Q209.8 99.4 207.3 88.3 Q197.1 93.5 199.6 104.6 Z"></path></g><path d="M206.1 173.8 Q215.1 159.9 220 144.2" fill="none" stroke="url(#g)" stroke-width="1.9" stroke-linecap="round"></path><path d="M220 144.2 Q221.7 132.3 220 120.3" fill="none" stroke="url(#g)" stroke-width="1.3" stroke-linecap="round"></path><path d="M220 120.3 Q217.4 111.9 212.6 104.6" fill="none" stroke="url(#g)" stroke-width="0.9" stroke-linecap="round"></path><g fill="url(#g)"><path d="M212.6 104.6 Q215.1 93.5 205 88.3 Q202.5 99.4 212.6 104.6 Z"></path></g><path d="M220 120.3 Q224.8 113 227.5 104.6" fill="none" stroke="url(#g)" stroke-width="0.9" stroke-linecap="round"></path><g fill="url(#g)"><path d="M227.5 104.6 Q237.6 99.4 235.1 88.3 Q225 93.5 227.5 104.6 Z"></path></g><path d="M220 144.2 Q230.3 137.9 238.4 129" fill="none" stroke="url(#g)" stroke-width="1.3" stroke-linecap="round"></path><path d="M238.4 129 Q243.2 121.6 245.8 113.2" fill="none" stroke="url(#g)" stroke-width="0.9" stroke-linecap="round"></path><g fill="url(#g)"><path d="M245.8 113.2 Q256 108.1 253.5 97 Q243.3 102.1 245.8 113.2 Z"></path></g><path d="M238.4 129 Q247.2 128 255.3 124.7" fill="none" stroke="url(#g)" stroke-width="0.9" stroke-linecap="round"></path><g fill="url(#g)"><path d="M255.3 124.7 Q265.7 129.2 272.7 120.2 Q262.3 115.7 255.3 124.7 Z"></path></g><path d="M206.1 173.8 Q207.4 159 204.6 144.4" fill="none" stroke="url(#g)" stroke-width="1.7" stroke-linecap="round"></path><path d="M204.6 144.4 Q200.9 134.2 194.5 125.4" fill="none" stroke="url(#g)" stroke-width="1.2" stroke-linecap="round"></path><path d="M194.5 125.4 Q188.9 119.9 182 116.1" fill="none" stroke="url(#g)" stroke-width="0.9" stroke-linecap="round"></path><g fill="url(#g)"><path d="M182 116.1 Q179 105.1 167.6 105.3 Q170.6 116.3 182 116.1 Z"></path></g><path d="M194.5 125.4 Q195.2 117.6 193.8 109.8" fill="none" stroke="url(#g)" stroke-width="0.9" stroke-linecap="round"></path><g fill="url(#g)"><path d="M193.8 109.8 Q200.3 100.4 192.9 91.8 Q186.3 101.1 193.8 109.8 Z"></path></g><path d="M204.6 144.4 Q210.1 135 212.8 124.5" fill="none" stroke="url(#g)" stroke-width="1.2" stroke-linecap="round"></path><path d="M212.8 124.5 Q213.5 116.6 212 108.9" fill="none" stroke="url(#g)" stroke-width="0.9" stroke-linecap="round"></path><g fill="url(#g)"><path d="M212 108.9 Q218.6 99.5 211.1 90.9 Q204.6 100.2 212 108.9 Z"></path></g><path d="M212.8 124.5 Q219.3 120 224.4 114" fill="none" stroke="url(#g)" stroke-width="0.9" stroke-linecap="round"></path><g fill="url(#g)"><path d="M224.4 114 Q235.7 113 237.7 101.8 Q226.3 102.7 224.4 114 Z"></path></g><path d="M206.1 218.5 Q225.4 206.7 240.6 190" fill="none" stroke="url(#g)" stroke-width="2.6" stroke-linecap="round"></path><path d="M240.6 190 Q249.6 176.2 254.5 160.4" fill="none" stroke="url(#g)" stroke-width="1.9" stroke-linecap="round"></path><path d="M254.5 160.4 Q256.2 148.5 254.5 136.6" fill="none" stroke="url(#g)" stroke-width="1.3" stroke-linecap="round"></path><path d="M254.5 136.6 Q251.9 128.2 247.1 120.8" fill="none" stroke="url(#g)" stroke-width="0.9" stroke-linecap="round"></path><g fill="url(#g)"><path d="M247.1 120.8 Q249.6 109.7 239.5 104.5 Q237 115.7 247.1 120.8 Z"></path></g><path d="M254.5 136.6 Q259.4 129.2 262 120.8" fill="none" stroke="url(#g)" stroke-width="0.9" stroke-linecap="round"></path><g fill="url(#g)"><path d="M262 120.8 Q272.1 115.7 269.6 104.5 Q259.5 109.7 262 120.8 Z"></path></g><path d="M254.5 160.4 Q264.8 154.1 272.9 145.2" fill="none" stroke="url(#g)" stroke-width="1.3" stroke-linecap="round"></path><path d="M272.9 145.2 Q277.7 137.9 280.3 129.5" fill="none" stroke="url(#g)" stroke-width="0.9" stroke-linecap="round"></path><g fill="url(#g)"><path d="M280.3 129.5 Q290.5 124.3 288 113.2 Q277.8 118.4 280.3 129.5 Z"></path></g><path d="M272.9 145.2 Q281.7 144.3 289.8 140.9" fill="none" stroke="url(#g)" stroke-width="0.9" stroke-linecap="round"></path><g fill="url(#g)"><path d="M289.8 140.9 Q300.2 145.5 307.2 136.4 Q296.8 131.9 289.8 140.9 Z"></path></g><path d="M240.6 190 Q257 188.2 272.3 181.9" fill="none" stroke="url(#g)" stroke-width="1.9" stroke-linecap="round"></path><path d="M272.3 181.9 Q282.5 175.6 290.7 166.7" fill="none" stroke="url(#g)" stroke-width="1.3" stroke-linecap="round"></path><path d="M290.7 166.7 Q295.5 159.3 298.1 150.9" fill="none" stroke="url(#g)" stroke-width="0.9" stroke-linecap="round"></path><g fill="url(#g)"><path d="M298.1 150.9 Q308.2 145.8 305.7 134.7 Q295.6 139.8 298.1 150.9 Z"></path></g><path d="M290.7 166.7 Q299.4 165.7 307.5 162.4" fill="none" stroke="url(#g)" stroke-width="0.9" stroke-linecap="round"></path><g fill="url(#g)"><path d="M307.5 162.4 Q318 166.9 325 157.9 Q314.5 153.4 307.5 162.4 Z"></path></g><path d="M272.3 181.9 Q283.7 185.8 295.7 186.4" fill="none" stroke="url(#g)" stroke-width="1.3" stroke-linecap="round"></path><path d="M295.7 186.4 Q304.4 185.4 312.6 182.1" fill="none" stroke="url(#g)" stroke-width="0.9" stroke-linecap="round"></path><g fill="url(#g)"><path d="M312.6 182.1 Q323 186.6 330 177.6 Q319.6 173 312.6 182.1 Z"></path></g><path d="M295.7 186.4 Q302 192.5 309.8 196.6" fill="none" stroke="url(#g)" stroke-width="0.9" stroke-linecap="round"></path><g fill="url(#g)"><path d="M309.8 196.6 Q312.9 207.6 324.3 207.2 Q321.2 196.3 309.8 196.6 Z"></path></g><path d="M240.6 190 Q253.5 182.5 263.7 171.8" fill="none" stroke="url(#g)" stroke-width="1.7" stroke-linecap="round"></path><path d="M263.7 171.8 Q269.9 162.9 273.3 152.6" fill="none" stroke="url(#g)" stroke-width="1.2" stroke-linecap="round"></path><path d="M273.3 152.6 Q274.6 144.8 273.7 136.9" fill="none" stroke="url(#g)" stroke-width="0.9" stroke-linecap="round"></path><g fill="url(#g)"><path d="M273.7 136.9 Q280.9 128.1 274.2 119 Q266.9 127.8 273.7 136.9 Z"></path></g><path d="M273.3 152.6 Q280.2 148.6 285.7 142.9" fill="none" stroke="url(#g)" stroke-width="0.9" stroke-linecap="round"></path><g fill="url(#g)"><path d="M285.7 142.9 Q297.1 142.9 299.8 131.8 Q288.4 131.9 285.7 142.9 Z"></path></g><path d="M263.7 171.8 Q274.5 170.9 284.7 167" fill="none" stroke="url(#g)" stroke-width="1.2" stroke-linecap="round"></path><path d="M284.7 167 Q291.5 163 297 157.3" fill="none" stroke="url(#g)" stroke-width="0.9" stroke-linecap="round"></path><g fill="url(#g)"><path d="M297 157.3 Q308.4 157.2 311.1 146.2 Q299.7 146.2 297 157.3 Z"></path></g><path d="M284.7 167 Q292.1 169.7 300 170.3" fill="none" stroke="url(#g)" stroke-width="0.9" stroke-linecap="round"></path><g fill="url(#g)"><path d="M300 170.3 Q307.3 179.1 317.6 174.1 Q310.2 165.4 300 170.3 Z"></path></g><path d="M206.1 218.5 Q217.9 202 224.7 182.8" fill="none" stroke="url(#g)" stroke-width="2.5" stroke-linecap="round"></path><path d="M224.7 182.8 Q227.4 168.2 225.9 153.4" fill="none" stroke="url(#g)" stroke-width="1.7" stroke-linecap="round"></path><path d="M225.9 153.4 Q223.1 142.9 217.6 133.6" fill="none" stroke="url(#g)" stroke-width="1.2" stroke-linecap="round"></path><path d="M217.6 133.6 Q212.5 127.6 205.9 123.2" fill="none" stroke="url(#g)" stroke-width="0.9" stroke-linecap="round"></path><g fill="url(#g)"><path d="M205.9 123.2 Q203.9 111.9 192.5 111.1 Q194.5 122.4 205.9 123.2 Z"></path></g><path d="M217.6 133.6 Q219 125.8 218.2 118" fill="none" stroke="url(#g)" stroke-width="0.9" stroke-linecap="round"></path><g fill="url(#g)"><path d="M218.2 118 Q225.5 109.3 218.9 100 Q211.6 108.7 218.2 118 Z"></path></g><path d="M225.9 153.4 Q232.2 144.6 235.8 134.4" fill="none" stroke="url(#g)" stroke-width="1.2" stroke-linecap="round"></path><path d="M235.8 134.4 Q237.2 126.6 236.5 118.7" fill="none" stroke="url(#g)" stroke-width="0.9" stroke-linecap="round"></path><g fill="url(#g)"><path d="M236.5 118.7 Q243.8 110 237.2 100.7 Q229.8 109.4 236.5 118.7 Z"></path></g><path d="M235.8 134.4 Q242.7 130.5 248.3 124.9" fill="none" stroke="url(#g)" stroke-width="0.9" stroke-linecap="round"></path><g fill="url(#g)"><path d="M248.3 124.9 Q259.7 125 262.6 114 Q251.2 113.9 248.3 124.9 Z"></path></g><path d="M224.7 182.8 Q237.7 175.5 248.1 165" fill="none" stroke="url(#g)" stroke-width="1.7" stroke-linecap="round"></path><path d="M248.1 165 Q254.4 156.2 258.1 145.9" fill="none" stroke="url(#g)" stroke-width="1.2" stroke-linecap="round"></path><path d="M258.1 145.9 Q259.5 138.2 258.7 130.3" fill="none" stroke="url(#g)" stroke-width="0.9" stroke-linecap="round"></path><g fill="url(#g)"><path d="M258.7 130.3 Q266 121.6 259.4 112.3 Q252.1 121 258.7 130.3 Z"></path></g><path d="M258.1 145.9 Q265 142.1 270.5 136.4" fill="none" stroke="url(#g)" stroke-width="0.9" stroke-linecap="round"></path><g fill="url(#g)"><path d="M270.5 136.4 Q281.9 136.6 284.9 125.5 Q273.4 125.4 270.5 136.4 Z"></path></g><path d="M248.1 165 Q258.9 164.2 269.1 160.5" fill="none" stroke="url(#g)" stroke-width="1.2" stroke-linecap="round"></path><path d="M269.1 160.5 Q276 156.6 281.6 151" fill="none" stroke="url(#g)" stroke-width="0.9" stroke-linecap="round"></path><g fill="url(#g)"><path d="M281.6 151 Q293 151.1 295.9 140.1 Q284.5 140 281.6 151 Z"></path></g><path d="M269.1 160.5 Q276.5 163.3 284.4 164.1" fill="none" stroke="url(#g)" stroke-width="0.9" stroke-linecap="round"></path><g fill="url(#g)"><path d="M284.4 164.1 Q291.6 172.9 301.9 168.2 Q294.7 159.3 284.4 164.1 Z"></path></g><path d="M224.7 182.8 Q233.4 172.6 238.9 160.4" fill="none" stroke="url(#g)" stroke-width="1.6" stroke-linecap="round"></path><path d="M238.9 160.4 Q241.5 151 241.3 141.3" fill="none" stroke="url(#g)" stroke-width="1.2" stroke-linecap="round"></path><path d="M241.3 141.3 Q240.1 134.3 237 127.9" fill="none" stroke="url(#g)" stroke-width="0.8" stroke-linecap="round"></path><g fill="url(#g)"><path d="M237 127.9 Q240.8 117.1 231.4 110.7 Q227.5 121.5 237 127.9 Z"></path></g><path d="M241.3 141.3 Q245.9 135.8 248.9 129.4" fill="none" stroke="url(#g)" stroke-width="0.8" stroke-linecap="round"></path><g fill="url(#g)"><path d="M248.9 129.4 Q259.6 125.5 258.5 114.2 Q247.8 118 248.9 129.4 Z"></path></g><path d="M238.9 160.4 Q247.8 156.4 255.2 150.1" fill="none" stroke="url(#g)" stroke-width="1.2" stroke-linecap="round"></path><path d="M255.2 150.1 Q259.8 144.7 262.8 138.2" fill="none" stroke="url(#g)" stroke-width="0.8" stroke-linecap="round"></path><g fill="url(#g)"><path d="M262.8 138.2 Q273.5 134.3 272.4 123 Q261.7 126.8 262.8 138.2 Z"></path></g><path d="M255.2 150.1 Q262.3 150.2 269.2 148.3" fill="none" stroke="url(#g)" stroke-width="0.8" stroke-linecap="round"></path><g fill="url(#g)"><path d="M269.2 148.3 Q279 154.1 287.1 146.1 Q277.3 140.2 269.2 148.3 Z"></path></g><path d="M180 274 Q185.2 246.6 182.6 218.9" fill="none" stroke="url(#g)" stroke-width="3.6" stroke-linecap="round"></path><path d="M182.6 218.9 Q177.5 199.2 167.2 181.6" fill="none" stroke="url(#g)" stroke-width="2.5" stroke-linecap="round"></path><path d="M167.2 181.6 Q157.8 170.2 145.5 161.8" fill="none" stroke="url(#g)" stroke-width="1.7" stroke-linecap="round"></path><path d="M145.5 161.8 Q135.7 157.3 125 155.5" fill="none" stroke="url(#g)" stroke-width="1.2" stroke-linecap="round"></path><path d="M125 155.5 Q117.1 155.5 109.5 157.7" fill="none" stroke="url(#g)" stroke-width="0.9" stroke-linecap="round"></path><g fill="url(#g)"><path d="M109.5 157.7 Q99.6 152.1 91.6 160.3 Q101.5 165.9 109.5 157.7 Z"></path></g><path d="M125 155.5 Q119.9 149.4 113.4 145" fill="none" stroke="url(#g)" stroke-width="0.9" stroke-linecap="round"></path><g fill="url(#g)"><path d="M113.4 145 Q111.4 133.7 100.1 132.9 Q102 144.1 113.4 145 Z"></path></g><path d="M145.5 161.8 Q142.8 151.4 137.3 142" fill="none" stroke="url(#g)" stroke-width="1.2" stroke-linecap="round"></path><path d="M137.3 142 Q132.2 135.9 125.7 131.5" fill="none" stroke="url(#g)" stroke-width="0.9" stroke-linecap="round"></path><g fill="url(#g)"><path d="M125.7 131.5 Q123.8 120.2 112.4 119.3 Q114.3 130.6 125.7 131.5 Z"></path></g><path d="M137.3 142 Q138.8 134.2 138 126.4" fill="none" stroke="url(#g)" stroke-width="0.9" stroke-linecap="round"></path><g fill="url(#g)"><path d="M138 126.4 Q145.5 117.7 138.9 108.4 Q131.5 117 138 126.4 Z"></path></g><path d="M167.2 181.6 Q170 167.1 168.6 152.3" fill="none" stroke="url(#g)" stroke-width="1.7" stroke-linecap="round"></path><path d="M168.6 152.3 Q165.9 141.8 160.4 132.4" fill="none" stroke="url(#g)" stroke-width="1.2" stroke-linecap="round"></path><path d="M160.4 132.4 Q155.4 126.3 148.9 121.9" fill="none" stroke="url(#g)" stroke-width="0.9" stroke-linecap="round"></path><g fill="url(#g)"><path d="M148.9 121.9 Q146.9 110.6 135.5 109.8 Q137.5 121 148.9 121.9 Z"></path></g><path d="M160.4 132.4 Q161.9 124.7 161.2 116.8" fill="none" stroke="url(#g)" stroke-width="0.9" stroke-linecap="round"></path><g fill="url(#g)"><path d="M161.2 116.8 Q168.6 108.1 162.1 98.8 Q154.6 107.5 161.2 116.8 Z"></path></g><path d="M168.6 152.3 Q175 143.5 178.7 133.3" fill="none" stroke="url(#g)" stroke-width="1.2" stroke-linecap="round"></path><path d="M178.7 133.3 Q180.2 125.5 179.5 117.7" fill="none" stroke="url(#g)" stroke-width="0.9" stroke-linecap="round"></path><g fill="url(#g)"><path d="M179.5 117.7 Q186.9 109 180.3 99.7 Q172.9 108.3 179.5 117.7 Z"></path></g><path d="M178.7 133.3 Q185.6 129.5 191.3 123.9" fill="none" stroke="url(#g)" stroke-width="0.9" stroke-linecap="round"></path><g fill="url(#g)"><path d="M191.3 123.9 Q202.7 124.1 205.7 113.1 Q194.3 112.9 191.3 123.9 Z"></path></g><path d="M167.2 181.6 Q163.3 168.9 156 157.7" fill="none" stroke="url(#g)" stroke-width="1.6" stroke-linecap="round"></path><path d="M156 157.7 Q149.4 150.5 141.1 145.3" fill="none" stroke="url(#g)" stroke-width="1.2" stroke-linecap="round"></path><path d="M141.1 145.3 Q134.5 142.6 127.5 141.8" fill="none" stroke="url(#g)" stroke-width="0.8" stroke-linecap="round"></path><g fill="url(#g)"><path d="M127.5 141.8 Q120.5 132.8 110 137.3 Q117 146.4 127.5 141.8 Z"></path></g><path d="M141.1 145.3 Q139 138.5 135.1 132.6" fill="none" stroke="url(#g)" stroke-width="0.8" stroke-linecap="round"></path><g fill="url(#g)"><path d="M135.1 132.6 Q137.7 121.5 127.5 116.3 Q125 127.4 135.1 132.6 Z"></path></g><path d="M156 157.7 Q157.4 148 156 138.4" fill="none" stroke="url(#g)" stroke-width="1.2" stroke-linecap="round"></path><path d="M156 138.4 Q153.9 131.6 150 125.6" fill="none" stroke="url(#g)" stroke-width="0.8" stroke-linecap="round"></path><g fill="url(#g)"><path d="M150 125.6 Q152.6 114.5 142.4 109.3 Q139.9 120.4 150 125.6 Z"></path></g><path d="M156 138.4 Q159.9 132.4 162.1 125.6" fill="none" stroke="url(#g)" stroke-width="0.8" stroke-linecap="round"></path><g fill="url(#g)"><path d="M162.1 125.6 Q172.2 120.5 169.8 109.3 Q159.6 114.5 162.1 125.6 Z"></path></g><path d="M182.6 218.9 Q194.6 202.4 201.5 183.3" fill="none" stroke="url(#g)" stroke-width="2.5" stroke-linecap="round"></path><path d="M201.5 183.3 Q204.3 168.7 202.9 153.9" fill="none" stroke="url(#g)" stroke-width="1.7" stroke-linecap="round"></path><path d="M202.9 153.9 Q200.2 143.4 194.7 134.1" fill="none" stroke="url(#g)" stroke-width="1.2" stroke-linecap="round"></path><path d="M194.7 134.1 Q189.7 128 183.1 123.5" fill="none" stroke="url(#g)" stroke-width="0.9" stroke-linecap="round"></path><g fill="url(#g)"><path d="M183.1 123.5 Q181.2 112.3 169.8 111.4 Q171.8 122.6 183.1 123.5 Z"></path></g><path d="M194.7 134.1 Q196.2 126.3 195.5 118.4" fill="none" stroke="url(#g)" stroke-width="0.9" stroke-linecap="round"></path><g fill="url(#g)"><path d="M195.5 118.4 Q202.9 109.8 196.3 100.4 Q188.9 109.1 195.5 118.4 Z"></path></g><path d="M202.9 153.9 Q209.3 145.1 213 134.9" fill="none" stroke="url(#g)" stroke-width="1.2" stroke-linecap="round"></path><path d="M213 134.9 Q214.5 127.2 213.7 119.3" fill="none" stroke="url(#g)" stroke-width="0.9" stroke-linecap="round"></path><g fill="url(#g)"><path d="M213.7 119.3 Q221.2 110.6 214.6 101.3 Q207.2 110 213.7 119.3 Z"></path></g><path d="M213 134.9 Q219.9 131.1 225.5 125.5" fill="none" stroke="url(#g)" stroke-width="0.9" stroke-linecap="round"></path><g fill="url(#g)"><path d="M225.5 125.5 Q236.9 125.8 239.9 114.8 Q228.5 114.6 225.5 125.5 Z"></path></g><path d="M201.5 183.3 Q214.5 176.1 225.1 165.7" fill="none" stroke="url(#g)" stroke-width="1.7" stroke-linecap="round"></path><path d="M225.1 165.7 Q231.4 156.9 235.1 146.7" fill="none" stroke="url(#g)" stroke-width="1.2" stroke-linecap="round"></path><path d="M235.1 146.7 Q236.6 138.9 235.9 131" fill="none" stroke="url(#g)" stroke-width="0.9" stroke-linecap="round"></path><g fill="url(#g)"><path d="M235.9 131 Q243.3 122.4 236.7 113.1 Q229.3 121.7 235.9 131 Z"></path></g><path d="M235.1 146.7 Q242.1 142.9 247.7 137.3" fill="none" stroke="url(#g)" stroke-width="0.9" stroke-linecap="round"></path><g fill="url(#g)"><path d="M247.7 137.3 Q259.1 137.5 262.1 126.5 Q250.7 126.3 247.7 137.3 Z"></path></g><path d="M225.1 165.7 Q235.9 165 246.1 161.3" fill="none" stroke="url(#g)" stroke-width="1.2" stroke-linecap="round"></path><path d="M246.1 161.3 Q253 157.5 258.6 151.9" fill="none" stroke="url(#g)" stroke-width="0.9" stroke-linecap="round"></path><g fill="url(#g)"><path d="M258.6 151.9 Q270 152.1 273 141.1 Q261.6 140.9 258.6 151.9 Z"></path></g><path d="M246.1 161.3 Q253.4 164.2 261.3 165" fill="none" stroke="url(#g)" stroke-width="0.9" stroke-linecap="round"></path><g fill="url(#g)"><path d="M261.3 165 Q268.4 173.9 278.8 169.2 Q271.7 160.3 261.3 165 Z"></path></g><path d="M201.5 183.3 Q209.6 172.6 214.3 160.1" fill="none" stroke="url(#g)" stroke-width="1.6" stroke-linecap="round"></path><path d="M214.3 160.1 Q216.3 150.6 215.6 140.8" fill="none" stroke="url(#g)" stroke-width="1.2" stroke-linecap="round"></path><path d="M215.6 140.8 Q213.9 133.9 210.4 127.7" fill="none" stroke="url(#g)" stroke-width="0.8" stroke-linecap="round"></path><g fill="url(#g)"><path d="M210.4 127.7 Q213.7 116.8 203.9 111 Q200.6 121.9 210.4 127.7 Z"></path></g><path d="M215.6 140.8 Q219.9 135.2 222.4 128.5" fill="none" stroke="url(#g)" stroke-width="0.8" stroke-linecap="round"></path><g fill="url(#g)"><path d="M222.4 128.5 Q232.9 124 231.2 112.8 Q220.7 117.2 222.4 128.5 Z"></path></g><path d="M214.3 160.1 Q223 155.6 230 148.8" fill="none" stroke="url(#g)" stroke-width="1.2" stroke-linecap="round"></path><path d="M230 148.8 Q234.3 143.1 236.8 136.5" fill="none" stroke="url(#g)" stroke-width="0.8" stroke-linecap="round"></path><g fill="url(#g)"><path d="M236.8 136.5 Q247.3 132 245.6 120.7 Q235.1 125.2 236.8 136.5 Z"></path></g><path d="M230 148.8 Q237.1 148.5 243.9 146.2" fill="none" stroke="url(#g)" stroke-width="0.8" stroke-linecap="round"></path><g fill="url(#g)"><path d="M243.9 146.2 Q254 151.4 261.6 142.9 Q251.4 137.7 243.9 146.2 Z"></path></g><path d="M182.6 218.9 Q185 200.7 182.3 182.6" fill="none" stroke="url(#g)" stroke-width="2.4" stroke-linecap="round"></path><path d="M182.3 182.6 Q178.3 169.9 170.9 158.8" fill="none" stroke="url(#g)" stroke-width="1.6" stroke-linecap="round"></path><path d="M170.9 158.8 Q164.2 151.6 155.9 146.6" fill="none" stroke="url(#g)" stroke-width="1.2" stroke-linecap="round"></path><path d="M155.9 146.6 Q149.3 143.9 142.2 143.2" fill="none" stroke="url(#g)" stroke-width="0.8" stroke-linecap="round"></path><g fill="url(#g)"><path d="M142.2 143.2 Q135.1 134.2 124.7 138.9 Q131.8 147.8 142.2 143.2 Z"></path></g><path d="M155.9 146.6 Q153.7 139.8 149.8 133.9" fill="none" stroke="url(#g)" stroke-width="0.8" stroke-linecap="round"></path><g fill="url(#g)"><path d="M149.8 133.9 Q152.2 122.7 142 117.6 Q139.5 128.8 149.8 133.9 Z"></path></g><path d="M170.9 158.8 Q172.1 149.1 170.7 139.4" fill="none" stroke="url(#g)" stroke-width="1.2" stroke-linecap="round"></path><path d="M170.7 139.4 Q168.5 132.7 164.6 126.7" fill="none" stroke="url(#g)" stroke-width="0.8" stroke-linecap="round"></path><g fill="url(#g)"><path d="M164.6 126.7 Q167 115.6 156.8 110.5 Q154.4 121.7 164.6 126.7 Z"></path></g><path d="M170.7 139.4 Q174.5 133.5 176.6 126.6" fill="none" stroke="url(#g)" stroke-width="0.8" stroke-linecap="round"></path><g fill="url(#g)"><path d="M176.6 126.6 Q186.7 121.4 184.1 110.3 Q174 115.5 176.6 126.6 Z"></path></g><path d="M182.3 182.6 Q189.6 171.4 193.4 158.6" fill="none" stroke="url(#g)" stroke-width="1.6" stroke-linecap="round"></path><path d="M193.4 158.6 Q194.7 148.9 193.2 139.3" fill="none" stroke="url(#g)" stroke-width="1.2" stroke-linecap="round"></path><path d="M193.2 139.3 Q191.1 132.5 187.1 126.5" fill="none" stroke="url(#g)" stroke-width="0.8" stroke-linecap="round"></path><g fill="url(#g)"><path d="M187.1 126.5 Q189.5 115.4 179.3 110.3 Q176.9 121.5 187.1 126.5 Z"></path></g><path d="M193.2 139.3 Q197.1 133.3 199.1 126.4" fill="none" stroke="url(#g)" stroke-width="0.8" stroke-linecap="round"></path><g fill="url(#g)"><path d="M199.1 126.4 Q209.3 121.2 206.7 110.1 Q196.6 115.3 199.1 126.4 Z"></path></g><path d="M193.4 158.6 Q201.7 153.4 208.2 146.1" fill="none" stroke="url(#g)" stroke-width="1.2" stroke-linecap="round"></path><path d="M208.2 146.1 Q212 140.1 214.1 133.3" fill="none" stroke="url(#g)" stroke-width="0.8" stroke-linecap="round"></path><g fill="url(#g)"><path d="M214.1 133.3 Q224.2 128.1 221.6 117 Q211.5 122.2 214.1 133.3 Z"></path></g><path d="M208.2 146.1 Q215.3 145.3 221.8 142.5" fill="none" stroke="url(#g)" stroke-width="0.8" stroke-linecap="round"></path><g fill="url(#g)"><path d="M221.8 142.5 Q232.3 147 239.2 137.9 Q228.7 133.5 221.8 142.5 Z"></path></g><path d="M182.3 182.6 Q184.1 170.7 182.6 158.8" fill="none" stroke="url(#g)" stroke-width="1.6" stroke-linecap="round"></path><path d="M182.6 158.8 Q180.1 150.4 175.4 143" fill="none" stroke="url(#g)" stroke-width="1.1" stroke-linecap="round"></path><path d="M175.4 143 Q171.1 138.2 165.7 134.8" fill="none" stroke="url(#g)" stroke-width="0.8" stroke-linecap="round"></path><g fill="url(#g)"><path d="M165.7 134.8 Q163.3 123.6 152 123.2 Q154.3 134.3 165.7 134.8 Z"></path></g><path d="M175.4 143 Q176.3 136.6 175.5 130.3" fill="none" stroke="url(#g)" stroke-width="0.8" stroke-linecap="round"></path><g fill="url(#g)"><path d="M175.5 130.3 Q182.6 121.4 175.7 112.3 Q168.6 121.2 175.5 130.3 Z"></path></g><path d="M182.6 158.8 Q187.5 151.5 190.2 143.1" fill="none" stroke="url(#g)" stroke-width="1.1" stroke-linecap="round"></path><path d="M190.2 143.1 Q191.2 136.8 190.3 130.5" fill="none" stroke="url(#g)" stroke-width="0.8" stroke-linecap="round"></path><g fill="url(#g)"><path d="M190.3 130.5 Q197.4 121.5 190.5 112.5 Q183.4 121.4 190.3 130.5 Z"></path></g><path d="M190.2 143.1 Q195.7 139.9 200.1 135.2" fill="none" stroke="url(#g)" stroke-width="0.8" stroke-linecap="round"></path><g fill="url(#g)"><path d="M200.1 135.2 Q211.5 135 214.1 123.9 Q202.7 124.1 200.1 135.2 Z"></path></g><path d="M180 358 L180 390" fill="none" stroke="url(#g)" stroke-width="3.4" stroke-linecap="round" opacity="0.7"></path><path d="M180 390 L190.7 409.7" fill="none" stroke="url(#g)" stroke-width="2.4" stroke-linecap="round" opacity="0.7"></path><path d="M190.7 409.7 L203.9 418.1" fill="none" stroke="url(#g)" stroke-width="1.7" stroke-linecap="round" opacity="0.7"></path><path d="M203.9 418.1 L214.9 418.9" fill="none" stroke="url(#g)" stroke-width="1.2" stroke-linecap="round" opacity="0.7"></path><path d="M203.9 418.1 L209.2 427.8" fill="none" stroke="url(#g)" stroke-width="1.2" stroke-linecap="round" opacity="0.7"></path><path d="M190.7 409.7 L190.7 425.3" fill="none" stroke="url(#g)" stroke-width="1.7" stroke-linecap="round" opacity="0.7"></path><path d="M190.7 425.3 L196 435" fill="none" stroke="url(#g)" stroke-width="1.2" stroke-linecap="round" opacity="0.7"></path><path d="M190.7 425.3 L185.5 435" fill="none" stroke="url(#g)" stroke-width="1.2" stroke-linecap="round" opacity="0.7"></path><path d="M180 390 L169.3 409.7" fill="none" stroke="url(#g)" stroke-width="2.4" stroke-linecap="round" opacity="0.7"></path><path d="M169.3 409.7 L169.3 425.3" fill="none" stroke="url(#g)" stroke-width="1.7" stroke-linecap="round" opacity="0.7"></path><path d="M169.3 425.3 L174.5 435" fill="none" stroke="url(#g)" stroke-width="1.2" stroke-linecap="round" opacity="0.7"></path><path d="M169.3 425.3 L164 435" fill="none" stroke="url(#g)" stroke-width="1.2" stroke-linecap="round" opacity="0.7"></path><path d="M169.3 409.7 L156.1 418.1" fill="none" stroke="url(#g)" stroke-width="1.7" stroke-linecap="round" opacity="0.7"></path><path d="M156.1 418.1 L150.8 427.8" fill="none" stroke="url(#g)" stroke-width="1.2" stroke-linecap="round" opacity="0.7"></path><path d="M156.1 418.1 L145.1 418.9" fill="none" stroke="url(#g)" stroke-width="1.2" stroke-linecap="round" opacity="0.7"></path></svg>